<svg xmlns="http://www.w3.org/2000/svg" viewBox="0 0 635.04 853"><defs><style>.cls-1,.cls-3{fill:#c9a96e;}.cls-1,.cls-2,.cls-3{stroke:#c9a96e;stroke-width:3px;}.cls-1{opacity:0.4;}.cls-2{fill:none;}.cls-3{opacity:0.11;}</style></defs><g id="Layer_2" data-name="Layer 2"><path d="M207.65,184.14V171.72H211c1.55,2.79,4.41,7.82,5,9.17h0c-.14-1.3-.14-3.45-.14-5.49v-3.68h2.43v12.42h-3.15c-1.34-2.43-4.51-8.2-5.13-9.64h0c.09,1.09.12,3.64.12,5.86v3.78Z"/><path d="M229.39,179.46c0,2.82-1.68,4.89-4.64,4.89s-4.57-2.06-4.57-4.84,1.74-4.91,4.7-4.91C227.62,174.6,229.39,176.54,229.39,179.46Zm-6.59,0c0,1.79.77,2.85,2,2.85s2-1.06,2-2.84c0-2-.72-2.87-2-2.87S222.8,177.51,222.8,179.48Z"/><path d="M231.16,177.34c0-.92,0-1.74,0-2.52h2.53c0,.21.06,1.13.06,1.63a3,3,0,0,1,3-1.85v2.46c-1.87-.05-3,.46-3,3v4.07h-2.58Z"/><path d="M237.71,174.82h1.43v-2.53h2.59v2.53h1.82v1.94h-1.82v4.6c0,.7.21,1,1,1a4.23,4.23,0,0,0,.59,0v1.77a5.7,5.7,0,0,1-1.74.18c-1.81,0-2.42-1-2.42-2.6v-4.9h-1.43Z"/><path d="M247.6,171v4.93a3,3,0,0,1,2.67-1.32c1.74,0,3.12,1,3.12,3.56v6h-2.56v-5.6c0-1.21-.43-1.85-1.51-1.85-1.44,0-1.72,1.06-1.72,2.5v4.95H245V171Z"/><path d="M257.77,180c0,1.16.58,2.3,1.87,2.3a1.46,1.46,0,0,0,1.62-1h2.59a4.08,4.08,0,0,1-4.28,3c-3.07,0-4.4-2.29-4.4-4.74,0-2.92,1.5-5,4.49-5,3.2,0,4.29,2.32,4.29,4.64a6.53,6.53,0,0,1,0,.79Zm3.6-1.59c0-1.08-.45-2-1.71-2s-1.74.85-1.84,2Z"/><path d="M265.76,177.34c0-.92,0-1.74,0-2.52h2.53c0,.21.07,1.13.07,1.63a3,3,0,0,1,3-1.85v2.46c-1.87-.05-3,.46-3,3v4.07h-2.58Z"/><path d="M272.72,177.16c0-.79,0-1.66,0-2.34h2.5a10.4,10.4,0,0,1,.1,1.18,2.86,2.86,0,0,1,2.71-1.4c1.87,0,3.08,1.27,3.08,3.61v5.93h-2.58v-5.65c0-1-.35-1.8-1.48-1.8s-1.73.61-1.73,2.25v5.2h-2.58Z"/><path d="M237.24,346.36V333.94h3.32c1.55,2.79,4.42,7.82,5,9.17h0c-.14-1.3-.13-3.45-.13-5.49v-3.68h2.43v12.42h-3.16c-1.33-2.43-4.51-8.2-5.12-9.64h0c.09,1.09.12,3.64.12,5.86v3.78Z"/><path d="M259,341.68c0,2.82-1.69,4.89-4.64,4.89s-4.58-2.06-4.58-4.84,1.74-4.91,4.7-4.91C257.21,336.82,259,338.76,259,341.68Zm-6.6,0c0,1.79.77,2.85,2,2.85s2-1.06,2-2.84c0-1.95-.71-2.87-2-2.87S252.38,339.73,252.38,341.7Z"/><path d="M260.75,339.57c0-.93,0-1.75,0-2.53h2.53c0,.21.07,1.13.07,1.63a3,3,0,0,1,3-1.85v2.46c-1.87,0-3,.46-3,3v4.07h-2.58Z"/><path d="M267.29,337h1.44v-2.53h2.58V337h1.83V339h-1.83v4.6c0,.7.22,1,1,1a4.09,4.09,0,0,0,.58,0v1.78a6,6,0,0,1-1.73.17c-1.82,0-2.42-1-2.42-2.6V339h-1.44Z"/><path d="M277.19,333.21v4.93a3,3,0,0,1,2.67-1.32c1.74,0,3.12,1,3.12,3.56v6h-2.56v-5.6c0-1.21-.43-1.85-1.52-1.85-1.43,0-1.71,1.07-1.71,2.5v4.95h-2.58V333.21Z"/><path d="M300.51,342.53c-.5,2.32-2.24,4-5.35,4-3.94,0-5.8-2.78-5.8-6.31s1.92-6.46,5.93-6.46c3.3,0,4.91,1.94,5.21,4h-2.69a2.42,2.42,0,0,0-2.61-1.91c-2.21,0-3.07,2-3.07,4.25,0,2.1.75,4.31,3.14,4.31a2.47,2.47,0,0,0,2.54-1.9Z"/><path d="M304.43,342.25c0,1.17.59,2.3,1.88,2.3a1.46,1.46,0,0,0,1.62-1h2.58a4.07,4.07,0,0,1-4.27,3c-3.07,0-4.4-2.29-4.4-4.74,0-2.92,1.5-5,4.49-5,3.2,0,4.29,2.32,4.29,4.64a4.91,4.91,0,0,1,0,.79Zm3.6-1.59c0-1.08-.45-2-1.71-2s-1.73.85-1.83,2Z"/><path d="M312.44,339.39c0-.8,0-1.66,0-2.35h2.5a10.59,10.59,0,0,1,.1,1.19,2.85,2.85,0,0,1,2.71-1.41c1.87,0,3.08,1.27,3.08,3.61v5.93h-2.58v-5.64c0-1.05-.35-1.81-1.48-1.81s-1.73.61-1.73,2.25v5.2h-2.58Z"/><path d="M322,337h1.44v-2.53H326V337h1.83V339H326v4.6c0,.7.22,1,1,1a4.09,4.09,0,0,0,.58,0v1.78a6,6,0,0,1-1.73.17c-1.82,0-2.42-1-2.42-2.6V339H322Z"/><path d="M329.36,339.57c0-.93,0-1.75,0-2.53h2.53c0,.21.06,1.13.06,1.63a3,3,0,0,1,3-1.85v2.46c-1.88,0-3,.46-3,3v4.07h-2.58Z"/><path d="M343.88,344a22.49,22.49,0,0,0,.12,2.41h-2.46a3.77,3.77,0,0,1-.13-.91,2.75,2.75,0,0,1-2.62,1.12,2.88,2.88,0,0,1-3.2-2.92c0-2.12,1.71-3.1,4.44-3.1h1.33V340c0-.66-.24-1.32-1.43-1.32s-1.33.47-1.45,1.14H336c.14-1.65,1.16-3,4-3,2.5,0,3.86,1,3.86,3.21Zm-2.52-1.84h-1.05c-1.55,0-2.13.48-2.13,1.38a1.2,1.2,0,0,0,1.34,1.24c1.64,0,1.84-1.14,1.84-2.37Z"/><path d="M346.21,346.36V333.21h2.58v13.15Z"/><path d="M173.62,457.36V445H177c1.55,2.78,4.41,7.81,5,9.16h0c-.14-1.29-.14-3.45-.14-5.49V445h2.43v12.41h-3.15c-1.33-2.43-4.51-8.2-5.13-9.64h0c.09,1.09.12,3.64.12,5.86v3.78Z"/><path d="M195.37,452.68c0,2.82-1.69,4.9-4.64,4.9s-4.58-2.07-4.58-4.85,1.74-4.91,4.7-4.91C193.59,447.82,195.37,449.76,195.37,452.68Zm-6.6,0c0,1.79.77,2.86,2,2.86s2-1.07,2-2.85c0-1.95-.72-2.87-2-2.87S188.77,450.73,188.77,452.7Z"/><path d="M197.13,450.57c0-.93,0-1.75,0-2.53h2.53c0,.21.06,1.13.06,1.63a3,3,0,0,1,3-1.85v2.47c-1.87-.05-3,.45-3,3v4.06h-2.58Z"/><path d="M203.68,448h1.44v-2.52h2.58V448h1.82V450H207.7v4.6c0,.71.21,1,1,1a4.23,4.23,0,0,0,.59,0v1.78a6,6,0,0,1-1.74.17c-1.81,0-2.41-1-2.41-2.6V450h-1.44Z"/><path d="M213.57,444.22v4.92a3,3,0,0,1,2.67-1.32c1.74,0,3.13,1,3.13,3.56v6H216.8v-5.59c0-1.22-.43-1.86-1.51-1.86-1.43,0-1.72,1.07-1.72,2.5v4.95H211V444.22Z"/><path d="M165.05,479l-3.16-12.42h2.86c1.16,5.71,1.69,8.24,1.84,9.6h0c.47-2.28,1.67-6.6,2.39-9.6h2.41c.64,2.39,1.9,7.2,2.3,9.48h0c.41-2.74,1.63-7.55,2.07-9.48h2.6L175,479h-2.78c-.65-2.75-1.74-6.76-2.18-8.89h0c-.45,2.21-1.57,6.39-2.23,8.89Z"/><path d="M181.1,474.85c0,1.17.58,2.31,1.87,2.31a1.47,1.47,0,0,0,1.62-1h2.59a4.08,4.08,0,0,1-4.28,3c-3.07,0-4.4-2.29-4.4-4.74,0-2.92,1.5-5,4.49-5,3.2,0,4.29,2.32,4.29,4.65a6.44,6.44,0,0,1,0,.78Zm3.6-1.58c0-1.09-.45-2-1.71-2s-1.74.85-1.84,2Z"/><path d="M191,476.16a1.63,1.63,0,0,0,1.77,1.16c.95,0,1.3-.35,1.3-.91s-.4-.83-1.74-1.16c-3-.75-3.53-1.69-3.53-3s1-2.83,3.78-2.83,3.78,1.55,3.86,2.81h-2.45c-.08-.35-.31-1-1.53-1-.85,0-1.13.38-1.13.8s.29.69,1.81,1c3.11.72,3.55,1.79,3.55,3.16,0,1.54-1.18,2.94-4,2.94s-4-1.36-4.2-3Z"/><path d="M197.33,469.64h1.43v-2.52h2.58v2.52h1.83v1.94h-1.83v4.6c0,.71.22,1,1,1a4.3,4.3,0,0,0,.59,0v1.78a6.05,6.05,0,0,1-1.74.17c-1.82,0-2.42-1-2.42-2.6v-4.9h-1.43Z"/><path d="M206.64,474.85c0,1.17.58,2.31,1.87,2.31a1.49,1.49,0,0,0,1.63-1h2.58a4.08,4.08,0,0,1-4.28,3c-3.07,0-4.4-2.29-4.4-4.74,0-2.92,1.5-5,4.49-5,3.2,0,4.29,2.32,4.29,4.65a6.44,6.44,0,0,1,0,.78Zm3.6-1.58c0-1.09-.45-2-1.71-2s-1.73.85-1.84,2Z"/><path d="M214.63,472.17c0-.93,0-1.75,0-2.53h2.53c0,.21.07,1.13.07,1.64a3,3,0,0,1,3-1.86v2.46c-1.87,0-3,.46-3,3V479h-2.58Z"/><path d="M221.59,472c0-.8,0-1.66,0-2.35h2.49a8.67,8.67,0,0,1,.1,1.19,2.86,2.86,0,0,1,2.71-1.41c1.87,0,3.09,1.27,3.09,3.61V479h-2.58v-5.64c0-1.05-.35-1.81-1.49-1.81s-1.73.61-1.73,2.25V479h-2.58Z"/><path d="M305,544.39c-.49,2.32-2.24,4-5.35,4-3.94,0-5.8-2.78-5.8-6.31s1.92-6.46,5.93-6.46c3.31,0,4.91,1.94,5.21,4h-2.68a2.44,2.44,0,0,0-2.62-1.91c-2.21,0-3.06,2-3.06,4.25,0,2.1.74,4.31,3.14,4.31a2.46,2.46,0,0,0,2.53-1.9Z"/><path d="M308.9,544.11c0,1.16.58,2.3,1.87,2.3a1.46,1.46,0,0,0,1.62-1H315a4.09,4.09,0,0,1-4.28,3c-3.07,0-4.4-2.29-4.4-4.74,0-2.92,1.5-5,4.49-5,3.2,0,4.29,2.32,4.29,4.64a6.53,6.53,0,0,1,0,.79Zm3.6-1.59c0-1.08-.46-2-1.71-2s-1.74.85-1.84,2Z"/><path d="M316.9,541.25c0-.8,0-1.66,0-2.35h2.5a8.65,8.65,0,0,1,.1,1.18,2.86,2.86,0,0,1,2.71-1.4c1.87,0,3.08,1.27,3.08,3.61v5.93h-2.58v-5.64c0-1.05-.34-1.81-1.48-1.81s-1.73.61-1.73,2.25v5.2H316.9Z"/><path d="M326.47,538.9h1.44v-2.53h2.58v2.53h1.83v1.94h-1.83v4.6c0,.7.22,1,1,1a4.09,4.09,0,0,0,.58,0v1.78a6,6,0,0,1-1.73.17c-1.82,0-2.42-1-2.42-2.6v-4.9h-1.44Z"/><path d="M333.82,541.43c0-.93,0-1.75,0-2.53h2.53c0,.21.07,1.13.07,1.63a3,3,0,0,1,3-1.85v2.46c-1.88,0-3,.46-3,3v4.07h-2.59Z"/><path d="M348.34,545.81a19.51,19.51,0,0,0,.13,2.41H346a3.77,3.77,0,0,1-.13-.91,2.75,2.75,0,0,1-2.62,1.12,2.87,2.87,0,0,1-3.19-2.92c0-2.12,1.7-3.1,4.43-3.1h1.33v-.57c0-.66-.24-1.32-1.43-1.32s-1.33.47-1.45,1.14h-2.45c.14-1.65,1.16-3,4-3,2.5,0,3.86,1,3.86,3.21ZM345.82,544h-1.05c-1.55,0-2.13.48-2.13,1.38a1.2,1.2,0,0,0,1.34,1.24c1.64,0,1.84-1.14,1.84-2.37Z"/><path d="M350.67,548.22V535.07h2.58v13.15Z"/><path d="M401.61,633.61V641c0,2.38,1.23,3.09,2.57,3.09,1.53,0,2.5-.84,2.5-3.09v-7.39h2.68v7.26c0,4.24-2.48,5.32-5.22,5.32s-5.22-1.12-5.22-5.27v-7.31Z"/><path d="M413.34,636.7c.88,3.16,1.62,5.92,1.81,7h0c.27-1.54,1.18-4.35,2-7h2.57L416.43,646h-2.71l-3.16-9.32Z"/><path d="M428.44,643.61a19.51,19.51,0,0,0,.13,2.41H426.1a4.34,4.34,0,0,1-.13-.91,2.74,2.74,0,0,1-2.62,1.13,2.88,2.88,0,0,1-3.19-2.93c0-2.12,1.7-3.1,4.44-3.1h1.33v-.57c0-.66-.24-1.31-1.44-1.31s-1.33.46-1.45,1.13h-2.45c.14-1.65,1.16-3,4-3,2.49,0,3.85,1,3.85,3.21Zm-2.51-1.83h-1.05c-1.56,0-2.14.47-2.14,1.37a1.2,1.2,0,0,0,1.35,1.24c1.64,0,1.84-1.14,1.84-2.37Z"/><path d="M455.22,490.44h-5.94v3.16h6.55l-.31,2.2h-8.84V483.38h8.8v2.2h-6.2v2.66h5.94Z"/><path d="M465.45,493.39a22.49,22.49,0,0,0,.12,2.41h-2.46a3.77,3.77,0,0,1-.13-.91,2.75,2.75,0,0,1-2.62,1.12,2.88,2.88,0,0,1-3.2-2.92c0-2.12,1.71-3.1,4.44-3.1h1.33v-.57c0-.67-.24-1.32-1.44-1.32s-1.32.47-1.44,1.14h-2.46c.14-1.66,1.17-3,4-3,2.5,0,3.86,1,3.86,3.21Zm-2.52-1.84h-1.05c-1.55,0-2.13.48-2.13,1.38a1.19,1.19,0,0,0,1.34,1.24c1.64,0,1.84-1.14,1.84-2.37Z"/><path d="M469.52,493a1.61,1.61,0,0,0,1.76,1.15c1,0,1.3-.34,1.3-.9s-.4-.83-1.73-1.16c-3-.75-3.53-1.69-3.53-3s1-2.82,3.78-2.82,3.78,1.54,3.86,2.81h-2.45c-.09-.35-.32-1-1.53-1-.85,0-1.13.38-1.13.8s.29.69,1.8,1c3.11.72,3.55,1.79,3.55,3.15,0,1.55-1.17,2.95-4,2.95s-4-1.36-4.21-3Z"/><path d="M475.89,486.48h1.44V484h2.58v2.53h1.82v1.94h-1.82V493c0,.7.21,1,1,1a4.16,4.16,0,0,0,.59,0v1.78a6,6,0,0,1-1.73.17c-1.82,0-2.42-1-2.42-2.6v-4.9h-1.44Z"/><path d="M485.2,491.69c0,1.16.59,2.3,1.87,2.3a1.47,1.47,0,0,0,1.63-1h2.58a4.07,4.07,0,0,1-4.27,3c-3.07,0-4.4-2.29-4.4-4.74,0-2.92,1.5-5,4.49-5,3.2,0,4.29,2.32,4.29,4.64a6.53,6.53,0,0,1,0,.79Zm3.6-1.59c0-1.08-.45-2-1.7-2s-1.74.85-1.84,2Z"/><path d="M493.19,489c0-.92,0-1.74,0-2.52h2.53c0,.21.07,1.13.07,1.63a3,3,0,0,1,3-1.85v2.46c-1.88-.05-3,.46-3,3v4.07h-2.59Z"/><path d="M500.16,488.83c0-.8,0-1.66,0-2.35h2.5a10.4,10.4,0,0,1,.1,1.18,2.85,2.85,0,0,1,2.7-1.4c1.87,0,3.09,1.27,3.09,3.61v5.93H506v-5.65c0-1-.35-1.8-1.49-1.8s-1.72.61-1.72,2.25v5.2h-2.58Z"/><path d="M245.43,789.75c.28,1.25,1.18,1.8,2.61,1.8s2.05-.57,2.05-1.48-.6-1.45-2.72-1.94c-3.38-.79-4.22-2-4.22-3.7,0-2.16,1.62-3.63,4.56-3.63,3.3,0,4.61,1.77,4.79,3.59h-2.71c-.13-.77-.55-1.6-2.15-1.6-1.09,0-1.74.45-1.74,1.34s.52,1.21,2.53,1.67c3.61.85,4.4,2.2,4.4,4,0,2.26-1.72,3.82-5,3.82s-4.81-1.55-5.1-3.82Z"/><path d="M263.47,788.72c0,2.82-1.69,4.89-4.64,4.89s-4.58-2.06-4.58-4.84,1.74-4.91,4.7-4.91C261.69,783.86,263.47,785.79,263.47,788.72Zm-6.6,0c0,1.8.77,2.86,2,2.86s2-1.06,2-2.84c0-2-.72-2.87-2-2.87S256.87,786.76,256.87,788.73Z"/><path d="M273.44,790.69c0,.89,0,1.87,0,2.7h-2.53c0-.25-.05-.75-.07-1.07a2.66,2.66,0,0,1-2.56,1.29c-1.9,0-3.12-1.15-3.12-3.47v-6.07h2.58v5.56c0,1,.32,1.88,1.44,1.88s1.66-.63,1.66-2.48v-5h2.58Z"/><path d="M275,784.07h1.44v-2.52H279v2.52h1.82V786H279v4.6c0,.71.21,1,1,1,.15,0,.4,0,.59,0v1.77a5.63,5.63,0,0,1-1.73.18c-1.82,0-2.42-1-2.42-2.6V786H275Z"/><path d="M284.9,780.25v4.92a3,3,0,0,1,2.67-1.31c1.73,0,3.12,1,3.12,3.55v6h-2.57V787.8c0-1.21-.43-1.85-1.51-1.85-1.43,0-1.71,1.06-1.71,2.5v4.94h-2.58V780.25Z"/><path d="M295.06,789.29c0,1.16.59,2.3,1.87,2.3a1.48,1.48,0,0,0,1.63-1h2.58a4.08,4.08,0,0,1-4.28,3c-3.07,0-4.4-2.3-4.4-4.74,0-2.92,1.5-5,4.5-5,3.2,0,4.28,2.31,4.28,4.64a6.53,6.53,0,0,1,0,.79Zm3.6-1.59c0-1.08-.45-2-1.71-2s-1.73.86-1.84,2Z"/><path d="M303.05,786.6c0-.92,0-1.75,0-2.53h2.53c0,.21.07,1.14.07,1.64a3,3,0,0,1,3-1.85v2.46c-1.87-.05-3,.46-3,3v4.06h-2.58Z"/><path d="M310,786.42c0-.79,0-1.66,0-2.35h2.5c.05.24.08.89.1,1.19a2.84,2.84,0,0,1,2.7-1.4c1.87,0,3.09,1.26,3.09,3.6v5.93h-2.58v-5.64c0-1-.35-1.8-1.49-1.8s-1.72.6-1.72,2.25v5.19H310Z"/><path d="M238.32,681.32c.22,1,.92,1.39,2,1.39s1.59-.44,1.59-1.14-.47-1.13-2.12-1.52c-2.63-.61-3.28-1.57-3.28-2.87,0-1.68,1.26-2.83,3.55-2.83,2.56,0,3.58,1.38,3.72,2.79h-2.1c-.1-.59-.43-1.24-1.68-1.24-.84,0-1.36.35-1.36,1s.41.94,2,1.3c2.81.67,3.43,1.71,3.43,3.07,0,1.77-1.33,3-3.89,3s-3.74-1.21-4-3Z"/><path d="M251.51,682.28a17.39,17.39,0,0,0,.09,1.87h-1.91a3.11,3.11,0,0,1-.11-.71,2.11,2.11,0,0,1-2,.88,2.25,2.25,0,0,1-2.49-2.28c0-1.65,1.33-2.41,3.45-2.41h1v-.44c0-.52-.19-1-1.12-1s-1,.36-1.12.89H245.4c.11-1.29.9-2.33,3.11-2.32,1.94,0,3,.77,3,2.5Zm-2-1.43h-.82c-1.21,0-1.66.37-1.66,1.07a.93.93,0,0,0,1.05,1c1.27,0,1.43-.88,1.43-1.84Z"/><path d="M253.32,673.92h2v3.75a2.26,2.26,0,0,1,2.07-.94c2,0,3,1.63,3,3.66s-1.07,3.93-3.15,3.93a2,2,0,0,1-1.91-.86,3.44,3.44,0,0,1-.08.69h-1.91c0-.79,0-1.59,0-2.37Zm5,6.51c0-1.21-.45-2.09-1.53-2.09s-1.55.74-1.55,2.22c0,1.22.36,2.16,1.53,2.16S258.32,681.8,258.32,680.43Z"/><path d="M267.7,682.28a16.7,16.7,0,0,0,.1,1.87h-1.92a3.8,3.8,0,0,1-.1-.71,2.12,2.12,0,0,1-2,.88,2.24,2.24,0,0,1-2.48-2.28c0-1.65,1.33-2.41,3.45-2.41h1v-.44c0-.52-.19-1-1.12-1s-1,.36-1.13.89h-1.9c.1-1.29.9-2.33,3.11-2.32,1.94,0,3,.77,3,2.5Zm-1.95-1.43h-.82c-1.21,0-1.66.37-1.66,1.07a.93.93,0,0,0,1.05,1c1.27,0,1.43-.88,1.43-1.84Z"/><path d="M269.52,678.87c0-.72,0-1.37,0-2h2c0,.16,0,.88,0,1.27a2.33,2.33,0,0,1,2.33-1.44v1.92c-1.46,0-2.33.35-2.33,2.34v3.16h-2Z"/><path d="M280.81,682.28a14.54,14.54,0,0,0,.1,1.87H279a2.65,2.65,0,0,1-.1-.71,2.14,2.14,0,0,1-2,.88,2.25,2.25,0,0,1-2.49-2.28c0-1.65,1.33-2.41,3.45-2.41h1v-.44c0-.52-.19-1-1.12-1s-1,.36-1.12.89H274.7c.11-1.29.91-2.33,3.11-2.32,1.94,0,3,.77,3,2.5Zm-2-1.43H278c-1.21,0-1.65.37-1.65,1.07a.93.93,0,0,0,1,1c1.27,0,1.43-.88,1.43-1.84Z"/><path d="M289.22,683.27c0,2.32-.86,3.8-3.61,3.8s-3.17-1.48-3.24-2.3h2.05a1.15,1.15,0,0,0,1.28.84c1.31,0,1.55-.8,1.55-2.22V683a2.14,2.14,0,0,1-2,1c-1.91,0-3-1.56-3-3.51,0-2.27,1.36-3.82,3.17-3.82,1.24,0,1.76.59,1.87.93,0-.2.07-.64.08-.76h1.9c0,.65,0,1.38,0,2.08Zm-5-2.81c0,1.25.62,2,1.51,2,1.21,0,1.53-.83,1.53-2s-.21-2.06-1.49-2.06C285,678.34,284.27,679,284.27,680.46Z"/><path d="M296.88,682.28a16.7,16.7,0,0,0,.1,1.87h-1.92a2.65,2.65,0,0,1-.1-.71,2.13,2.13,0,0,1-2,.88,2.24,2.24,0,0,1-2.48-2.28c0-1.65,1.32-2.41,3.45-2.41h1v-.44c0-.52-.18-1-1.11-1s-1,.36-1.13.89h-1.91c.11-1.29.91-2.33,3.11-2.32,1.94,0,3,.77,3,2.5Zm-2-1.43h-.81c-1.21,0-1.66.37-1.66,1.07a.93.93,0,0,0,1,1c1.28,0,1.43-.88,1.43-1.84Z"/><path d="M298.69,678.77c0-.63,0-1.25,0-1.87h1.92c0,.18.06.58.08.86a2.25,2.25,0,0,1,2-1,1.91,1.91,0,0,1,1.87,1.1,2.51,2.51,0,0,1,2.23-1.1c1.27,0,2.3.78,2.3,2.66v4.76h-2v-4.51c0-.66-.23-1.3-1.05-1.3s-1.19.55-1.19,1.66v4.15h-2v-4.44c0-.75-.18-1.36-1-1.36s-1.2.51-1.2,1.75v4h-2Z"/><path d="M317.26,682c0,.7,0,1.46,0,2.11h-2c0-.19-.05-.58-.06-.84a2.06,2.06,0,0,1-2,1c-1.48,0-2.43-.9-2.43-2.7V676.9h2v4.32c0,.8.25,1.46,1.12,1.46s1.29-.49,1.29-1.92V676.9h2Z"/><path d="M320.52,676.9c.65,2.91,1,4.56,1.15,5.46h0c.15-.8.36-1.94,1.24-5.46h1.87c.82,3.56,1.06,4.61,1.17,5.39h0c.15-.74.37-1.83,1.21-5.39h2L327,684.15h-2.15c-.6-2.75-.94-4.2-1.11-5.15h0c-.11.91-.51,2.55-1.15,5.15h-2.16l-2.05-7.25Z"/><path d="M336,682.28a16.7,16.7,0,0,0,.1,1.87h-1.92a3.12,3.12,0,0,1-.1-.71,2.12,2.12,0,0,1-2,.88,2.24,2.24,0,0,1-2.48-2.28c0-1.65,1.32-2.41,3.45-2.41h1v-.44c0-.52-.18-1-1.11-1s-1,.36-1.13.89h-1.91c.11-1.29.91-2.33,3.11-2.32,1.95,0,3,.77,3,2.5Zm-2-1.43h-.82c-1.21,0-1.66.37-1.66,1.07a.93.93,0,0,0,1,1c1.28,0,1.44-.88,1.44-1.84Z"/><path d="M146.42,632.88,144,623.22h2.23c.91,4.44,1.32,6.41,1.43,7.47h0c.37-1.77,1.3-5.14,1.87-7.47h1.87c.5,1.85,1.48,5.6,1.79,7.37h0c.32-2.13,1.26-5.87,1.6-7.37h2l-2.61,9.66H152c-.51-2.14-1.35-5.26-1.69-6.91h0c-.35,1.71-1.22,5-1.74,6.91Z"/><path d="M158.91,629.68c0,.91.45,1.8,1.45,1.8a1.15,1.15,0,0,0,1.27-.78h2a3.16,3.16,0,0,1-3.32,2.35c-2.39,0-3.43-1.79-3.43-3.69,0-2.28,1.17-3.9,3.5-3.9,2.49,0,3.34,1.8,3.34,3.61a3.83,3.83,0,0,1,0,.61Zm2.8-1.23c0-.84-.35-1.55-1.33-1.55s-1.35.66-1.43,1.55Z"/><path d="M166.57,630.7a1.25,1.25,0,0,0,1.37.9c.75,0,1-.26,1-.7s-.32-.65-1.35-.91c-2.37-.58-2.75-1.31-2.75-2.33s.75-2.2,2.94-2.2,2.94,1.2,3,2.18h-1.91c-.06-.26-.24-.77-1.18-.77-.67,0-.88.29-.88.62s.22.54,1.4.81c2.42.56,2.76,1.39,2.76,2.45,0,1.21-.91,2.3-3.12,2.3s-3.11-1.07-3.27-2.35Z"/><path d="M171.53,625.63h1.11v-2h2v2h1.42v1.51h-1.42v3.58c0,.55.17.76.77.76a3.86,3.86,0,0,0,.46,0v1.38a4.77,4.77,0,0,1-1.35.14c-1.42,0-1.89-.76-1.89-2v-3.81h-1.11Z"/><path d="M178.77,629.68c0,.91.46,1.8,1.46,1.8a1.14,1.14,0,0,0,1.26-.78h2a3.18,3.18,0,0,1-3.33,2.35c-2.38,0-3.42-1.79-3.42-3.69,0-2.28,1.17-3.9,3.5-3.9,2.49,0,3.33,1.8,3.33,3.61a5.72,5.72,0,0,1,0,.61Zm2.8-1.23c0-.84-.35-1.55-1.33-1.55s-1.35.66-1.43,1.55Z"/><path d="M185,627.6c0-.73,0-1.36,0-2h2c0,.16.05.88.05,1.27a2.33,2.33,0,0,1,2.33-1.44v1.92c-1.46,0-2.33.35-2.33,2.34v3.16h-2Z"/><path d="M190.4,627.46c0-.62,0-1.3,0-1.83h1.94a8.52,8.52,0,0,1,.08.92,2.22,2.22,0,0,1,2.1-1.09c1.46,0,2.41,1,2.41,2.81v4.61h-2v-4.39c0-.82-.27-1.41-1.16-1.41s-1.34.48-1.34,1.76v4h-2Z"/><g id="Northern"><path class="cls-1" d="M148.79,290.45s-.88-8,1.76-10.47,4-4.21,3.92-8.71-.1-4.2.78-5.38,2.45-.19,1.17-2.64-2.44-.49-1.46-2.93,2.25-3.14.58-6.27-4.59-7.43-5.28-10-1.56-2.74-.29-4.21,3.23-2.45,1.95-3.23-2-1.66-3.27-1.76-3.18.49-2.11-.78,4.21-2,3.13-2.84-2.83-.49-2.64-2.84.49-4.69,1.37-3.81,1.76,4.69,2.55,4.89,2.34-1.85,1.37-5.08-3-3.14-1.86-4.31,2.25-1,3-3.33,1.27-5.28.78-6.16-2.28-2.05-2.7-1.08a11.19,11.19,0,0,0-.92,3.72c-.1,1.47-1,5.58-2.54,4s-3.46-2.74-1.88-2.84,3-2.44,2.27-3.32a16.08,16.08,0,0,0-3-2.45c-1.08-.78-1.67-2.93-3.62-4.11s-6.36-1.37-8.61-4.89-.2-4.69-3.33-6.36-3.32.4-5.18-2.15-2.15-4.5-4.5-4.3-5.71-1.24-8.77-2.55-2-1.76-5.81-1.76-5.93,2-6.85-.45-2.21-8.42,2.94-7.89,5,1.69,7.3,1.63,3.13-2.09,5-1.67,2,2.19,5.61,3.49,3.72,0,5.74-.39,8.87,2.81,12.72,7.5,6.13,4.37,9.58,6.72,4.11,4.37.59,3.85-5.81-.85-7.17-2.81a53.56,53.56,0,0,0-5.68-6.26,17.09,17.09,0,0,0,2.61,4.83c1.37,1.56,2.61,5.61,5.8,6.84s5,.92,4.83,2.74-1.89,2.16-3.06,2.22-1.57-.65-1.57.46a4.86,4.86,0,0,0,3,4.5,9.49,9.49,0,0,1,3.52,2.67,9.52,9.52,0,0,1,4.63-1.89c2.55-.2,1.89-5.22,4.24-4.17s4.57,2.87,5.68.71-.85-4.95.91-7.24,3.59-3.06,6.72-3.19,5.73-4.31,7.56-7.31,2.09-1.56,2.22-5.21a14.18,14.18,0,0,1,1.3-6.39c.92-2.48.39-3.92.65-5.74s.14-3.13,1.7-3.26-1.3-.53,2-5.35,4.43-5.35,4.43-10.83.91-5.22,0-8.61-2.61-3.78-.91-5.21,3.39-1.44,2.74-3.26-3.52-2.74-5-3.92-.13-2.87-3.26-2.22-5,1.28-5.87-.14-1.69-13.42.65-14.86,4.44-.91,6.66-3.52,6.39-.65,8.47-.52,2.61-1.69,4.57-3.52a6.66,6.66,0,0,1,5.09-1.7c1,0-.4-.26,0-2.47s3-4,1.17-7.83-2.48-6.26-4.44-7.3-4-2.48-5.21-2.74-3-.53-3.52-1-2.84-4.6-6.46-6.16-5.09-.78-6.46-2.35-4.69-1.76-2.15-3.23,4.11-1.07,5.28,1,1.18,2.06,1.86,2.35,4.8-.69,4.89-2,.3,2.94,4.31,4.41a22.45,22.45,0,0,1,8.9,5.57c1.86,2.06,1.12,3.33,3.64,2.25s2.13-2.93,5.16-1.27,1.57,2.25,3.82,3,3.81.88,5,2.06,1.86,2.34,3.42,2.93-.68,1.47,1.18,2.35,2.93,0,3.42,1.37.49.68-1.17,2.44-4.9.59-3.72,2,6.36,4,8.41,3.91,6.56-3.42,7.63-4,.1,1.47,2.55,2,4,.68,6.06-2.05,2.84-2.25,3.23-4.41.39-2.74.78-2.74,1.6-.26,3.69-.52,2.47-2.61,4-.91.13,3.78,2.74,3.13,3.52-2.09,6.65-1.83,3.13,1.57,6.13,3.66,1.18,2.6,4.05,2.6,2.08-.91,4.56,1.31,2.87,4.56,5.74,4.3,2.61-1.17,6.52-1.3a23.8,23.8,0,0,1,6.65.65s-1.43-3.91-2-4.3a9.08,9.08,0,0,0-2.74-1.18,34.75,34.75,0,0,1-5-.91A16.42,16.42,0,0,1,288.91,93c-.52-.52,1.26-1.57-.87-2.09s-4.47-1.56-6.56-2-4.31-2.35-6.52-3.13-3.53-.26-4.83-1.44-2-2.48-3.26-2.35-3.52,1-2.48,2.35,4.44,3.26,1.44,3.13-3.66-2.09-4.7-2.22-3.52-.39-5.22.66-1,2-3.65,1a9.87,9.87,0,0,1-4.69-2.74c-2-1.69-8.39-7.66-12.89-10.5s-5-2.15-9.68-4.21-7.14-4.2-9.59-5.28-3.62-3.13-5-3.62-3.13-2-3.71-.58,2.34,2.73.68,4.1-2.64,1.76-2.25,2.74,3.91,1.27,4.6,2,.29,2.25-1.17,3.23-3.43.1-3.23-1.37-.69-2.64-1.76-2.64S201,67,200.05,66.52s-3.71-3-6.94-4.2-4.5-1.33-5.58-2.87-2.35-2.81-.1-4.47,1.77-4.6,3.92-4.31,2.83,0,2.54,2.16-2.35,2.83-.78,3.22,4.11-2.54,4.79-3.32-2.15-.59-.49-2.55a9.36,9.36,0,0,1,4.21-3,17.09,17.09,0,0,1,7.53-1c1.18.2,1.67-1.46.69-2.34s-1.37-3-2.64-2.35a14,14,0,0,1-3.13,1.66c-1.57.49-1.74-1.27-3.07.1s-1.83,3.33-3.39,4.3-1.37,1.57-2.94,1.47-3.62-1.66-5.08-1.08-6.46,3.33-6.46,5.58a14.46,14.46,0,0,0,.78,5.38,9.13,9.13,0,0,0,5.68,5.58c3.23,1.27,5.48,2.15,6.45,3.62s.3,3.32-2.54,2.34-6.55-3.71-9.39-5.57-3.43-2.45-6.46-2.45-2.25,1.37-5.28-1.27-3.72-5-5.09-6.36-.29-1.86-2.44-2.25-1.18-2.83-2.94-2.15-3.32,2.25-4.4,2.35a3.86,3.86,0,0,1-3.62-3.62c-.29-2.64,1-1.86-.78-4.7s-3-4.69-3.72-5.77-1.17-3-2-2.54-1.76-.1-2,3.32,1,5.09-.69,7.34-3,1.76-2.93,2.94,2.93-.2,3.72,3.13.68,6.16,2.15,6.06-2.54-4.21,2-4.4,7.54,2,7,4-1,3.62.68,4.21,3.82,0,5.09.78,1.57.68,1.47,1.86.59,1.07,2.44.1,3.82-1.37,3.62,2.25-.78,5.28-4.3,4.59-4.6.88-4-1.07a11.21,11.21,0,0,1,2-3.62A2.56,2.56,0,0,1,160,68.87c-2.64-1.17-3.91-2.15-6.26-3.13s-3.52-1.57-4.2-.39-1.28,4.4-3,3.72-2.34-.89-4.11-4.11-2.44-2.25-2.73-4.11,1.37-2.25,1.85-3-1.76-1.47-3.22-.69-3,1.76-3-.49,1.47-3.32,0-4.6S132,50,133,49.4s1.18-1.76,2.94-1.17,4.79,1.86,4.79,1.86-4.79-3.23-3.91-5.29,2-2.34,1-4.59-3.33-3.48-1.76-4.19,2.54.47,3.52.57,2.64-.49,5.48-1.37.39,1.07,6.06-1.08,6.16-5.57,12.62-6.46,6.75-3.32,12.42-2.83,9.1,2.35,11.55,2.64,3.13-.78,5.87-.39,2.74-.78,2.83,1.66a16.08,16.08,0,0,0,1.18,4.79c.29,1.18-1.27,1.67.59,3s1,2.74,2.8,2.15.82-2.15,2.58-2.25a4.36,4.36,0,0,1,3.62,1.76c.78.88,1.07,2.25,3,1.47a14.66,14.66,0,0,0,3-1.47c.59-.39,4.31-1.08,6.78,2.71s12.39,16.17,20,21.39,15.91,11.35,20,12.91S266.35,78,266.35,78s5.22.91-.52-2.35-10.57-8.48-14.61-10.3-4.05-1.44-7.05-5.35-7.17-6.65-8.08-7.43-5.35-4.18-8.35-7.18-4.31-2.48-5.35-5.22-1.56-4.82-2.22-5.34-1.69-2.74-2.74-.79-1.56,3.66-2.73,2.87a19,19,0,0,1-1.83-1.43c-1.7-1.31-2.48-2.48-3.91-1.83s-2.48,1.7-3.39.92-.79-1.7-2-2.48-4.31-.52-5-2.09-1.43-7.43,4.57-6.26,12.39,1.17,16.17,1.3,3.52-.52,6.78,3.39S237.65,52,254.09,62.22s29,21.39,33.13,24.13,7.92,6.68,12.52,8.74,5.67,3.62,8.71,6.36,4.1,2.93,5.18,4.69,1.57,2.84-.68,1.76-6.85-3.42-6.56-2.25,2.45,4.4,4.79,5.28a25.13,25.13,0,0,1,3.36,1.67c.95.39,1.34,2.05,2.22,3.23s.49,1.46,2.74,2.74,3.42,3.52,2.54.68a27.17,27.17,0,0,0-4.3-7.53c-1-1.18-3.72-4.11-1.08-3.23s3.82,4.5,6.66,6.55,4,3.82,5.18,4.8,4.11,4.3,3.91,4.79-3.71-1.76-5.08-2.84-3-2-2.35-.09.1,1.85,2.93,4.1,4.8,1.67,6.07,2.06,2.35.88,2.15,1.66-1.76.49-4.4.3-3.52,1.36-3.43,4.3-1.56,4.6,1.18,5.38,3.27.49,6.67,2.54,4,4.89,5.85,4.89,2.05-1,.88-4.4-1.37-4.6-1.47-4.89.49-.39-1.76-1.76-3.13-2.93-3.23-3.42,2.45-1.28,4.11,0,2.74,1.76,2.55,2.64-2.25-.59-.2.88,4.21,5.18,7.44,9.49,5.86,5.87,5.18,8.21-1.17,4.9,1,9,5.38,10.28,3.42,8.71-5.77-6.26-6.75-6.55-1.66-2.16-3.52-.2.78,2.35-.59,4.31-2.05,5.18,0,3.42,4.41-4.3,5.78-3-3,4.3,1.17,6.26,1.37-4,2.64-4.11,3.13.49,3.23,3.91.19,3.62,2.74,4.89,2.54,3.72,1.95,3.92.79,2.83,2.55,4.4,7,5.09,2.93,3.13-7.14-5.19-8.9-4.4-5.48,3.62-4.11,5.38,2.55,4.3,5,3.71,1.86-2.64,3.23-.88,2.44,2.84,2,5.19S359,208,354.75,208.85s-11.07-.21-13.54,1.12-4,5.25-6.64,6-8.35,5.61-14.22,6.78-10.83.92-13.7,1.31-7.17-.52-7.69.39,3.78,2.74,6.13,4.43,6.52,7.05,6.39,9.52-24.52,28.7-29.61,28.83-7,1-10-1.3-3.79-5-7.7-3.26a20.34,20.34,0,0,0-10,10.3c-1.7,4.43-3.13,1.43-2.87,6s.65,6-3.13,6.26-6.13,1.17-6.92,3.52.92,4.31-3.52,2.48-5.74.65-7.17-3.13-.65-4.3-2.61-7.3-7.57-5.48-8-7.7,2.22-5-.65-7-14.8,4.11-19.11,4.11-5.28.19-10.17,1.37-9.2-3.29-11-2.62-1,5.94-.39,11-1.17,9.39-1.37,13.11.2,3.71-2.54,4.69-2.94-2.74-7.05-3.91a33,33,0,0,0-10.37-1.37,18,18,0,0,1-6.45-1.17Z"/><path class="cls-2" d="M148.79,290.45s-.88-8,1.76-10.47,4-4.21,3.92-8.71-.1-4.2.78-5.38,2.45-.19,1.17-2.64-2.44-.49-1.46-2.93,2.25-3.14.58-6.27-4.59-7.43-5.28-10-1.56-2.74-.29-4.21,3.23-2.45,1.95-3.23-2-1.66-3.27-1.76-3.18.49-2.11-.78,4.21-2,3.13-2.84-2.83-.49-2.64-2.84.49-4.69,1.37-3.81,1.76,4.69,2.55,4.89,2.34-1.85,1.37-5.08-3-3.14-1.86-4.31,2.25-1,3-3.33,1.27-5.28.78-6.16-2.28-2.05-2.7-1.08a11.19,11.19,0,0,0-.92,3.72c-.1,1.47-1,5.58-2.54,4s-3.46-2.74-1.88-2.84,3-2.44,2.27-3.32a16.08,16.08,0,0,0-3-2.45c-1.08-.78-1.67-2.93-3.62-4.11s-6.36-1.37-8.61-4.89-.2-4.69-3.33-6.36-3.32.4-5.18-2.15-2.15-4.5-4.5-4.3-5.71-1.24-8.77-2.55-2-1.76-5.81-1.76-5.93,2-6.85-.45-2.21-8.42,2.94-7.89,5,1.69,7.3,1.63,3.13-2.09,5-1.67,2,2.19,5.61,3.49,3.72,0,5.74-.39,8.87,2.81,12.72,7.5,6.13,4.37,9.58,6.72,4.11,4.37.59,3.85-5.81-.85-7.17-2.81a53.56,53.56,0,0,0-5.68-6.26,17.09,17.09,0,0,0,2.61,4.83c1.37,1.56,2.61,5.61,5.8,6.84s5,.92,4.83,2.74-1.89,2.16-3.06,2.22-1.57-.65-1.57.46a4.86,4.86,0,0,0,3,4.5,9.49,9.49,0,0,1,3.52,2.67,9.52,9.52,0,0,1,4.63-1.89c2.55-.2,1.89-5.22,4.24-4.17s4.57,2.87,5.68.71-.85-4.95.91-7.24,3.59-3.06,6.72-3.19,5.73-4.31,7.56-7.31,2.09-1.56,2.22-5.21a14.18,14.18,0,0,1,1.3-6.39c.92-2.48.39-3.92.65-5.74s.14-3.13,1.7-3.26-1.3-.53,2-5.35,4.43-5.35,4.43-10.83.91-5.22,0-8.61-2.61-3.78-.91-5.21,3.39-1.44,2.74-3.26-3.52-2.74-5-3.92-.13-2.87-3.26-2.22-5,1.28-5.87-.14-1.69-13.42.65-14.86,4.44-.91,6.66-3.52,6.39-.65,8.47-.52,2.61-1.69,4.57-3.52a6.66,6.66,0,0,1,5.09-1.7c1,0-.4-.26,0-2.47s3-4,1.17-7.83-2.48-6.26-4.44-7.3-4-2.48-5.21-2.74-3-.53-3.52-1-2.84-4.6-6.46-6.16-5.09-.78-6.46-2.35-4.69-1.76-2.15-3.23,4.11-1.07,5.28,1,1.18,2.06,1.86,2.35,4.8-.69,4.89-2,.3,2.94,4.31,4.41a22.45,22.45,0,0,1,8.9,5.57c1.86,2.06,1.12,3.33,3.64,2.25s2.13-2.93,5.16-1.27,1.57,2.25,3.82,3,3.81.88,5,2.06,1.86,2.34,3.42,2.93-.68,1.47,1.18,2.35,2.93,0,3.42,1.37.49.68-1.17,2.44-4.9.59-3.72,2,6.36,4,8.41,3.91,6.56-3.42,7.63-4,.1,1.47,2.55,2,4,.68,6.06-2.05,2.84-2.25,3.23-4.41.39-2.74.78-2.74,1.6-.26,3.69-.52,2.47-2.61,4-.91.13,3.78,2.74,3.13,3.52-2.09,6.65-1.83,3.13,1.57,6.13,3.66,1.18,2.6,4.05,2.6,2.08-.91,4.56,1.31,2.87,4.56,5.74,4.3,2.61-1.17,6.52-1.3a23.8,23.8,0,0,1,6.65.65s-1.43-3.91-2-4.3a9.08,9.08,0,0,0-2.74-1.18,34.75,34.75,0,0,1-5-.91A16.42,16.42,0,0,1,288.91,93c-.52-.52,1.26-1.57-.87-2.09s-4.47-1.56-6.56-2-4.31-2.35-6.52-3.13-3.53-.26-4.83-1.44-2-2.48-3.26-2.35-3.52,1-2.48,2.35,4.44,3.26,1.44,3.13-3.66-2.09-4.7-2.22-3.52-.39-5.22.66-1,2-3.65,1a9.87,9.87,0,0,1-4.69-2.74c-2-1.69-8.39-7.66-12.89-10.5s-5-2.15-9.68-4.21-7.14-4.2-9.59-5.28-3.62-3.13-5-3.62-3.13-2-3.71-.58,2.34,2.73.68,4.1-2.64,1.76-2.25,2.74,3.91,1.27,4.6,2,.29,2.25-1.17,3.23-3.43.1-3.23-1.37-.69-2.64-1.76-2.64S201,67,200.05,66.52s-3.71-3-6.94-4.2-4.5-1.33-5.58-2.87-2.35-2.81-.1-4.47,1.77-4.6,3.92-4.31,2.83,0,2.54,2.16-2.35,2.83-.78,3.22,4.11-2.54,4.79-3.32-2.15-.59-.49-2.55a9.36,9.36,0,0,1,4.21-3,17.09,17.09,0,0,1,7.53-1c1.18.2,1.67-1.46.69-2.34s-1.37-3-2.64-2.35a14,14,0,0,1-3.13,1.66c-1.57.49-1.74-1.27-3.07.1s-1.83,3.33-3.39,4.3-1.37,1.57-2.94,1.47-3.62-1.66-5.08-1.08-6.46,3.33-6.46,5.58a14.46,14.46,0,0,0,.78,5.38,9.13,9.13,0,0,0,5.68,5.58c3.23,1.27,5.48,2.15,6.45,3.62s.3,3.32-2.54,2.34-6.55-3.71-9.39-5.57-3.43-2.45-6.46-2.45-2.25,1.37-5.28-1.27-3.72-5-5.09-6.36-.29-1.86-2.44-2.25-1.18-2.83-2.94-2.15-3.32,2.25-4.4,2.35a3.86,3.86,0,0,1-3.62-3.62c-.29-2.64,1-1.86-.78-4.7s-3-4.69-3.72-5.77-1.17-3-2-2.54-1.76-.1-2,3.32,1,5.09-.69,7.34-3,1.76-2.93,2.94,2.93-.2,3.72,3.13.68,6.16,2.15,6.06-2.54-4.21,2-4.4,7.54,2,7,4-1,3.62.68,4.21,3.82,0,5.09.78,1.57.68,1.47,1.86.59,1.07,2.44.1,3.82-1.37,3.62,2.25-.78,5.28-4.3,4.59-4.6.88-4-1.07a11.21,11.21,0,0,1,2-3.62A2.56,2.56,0,0,1,160,68.87c-2.64-1.17-3.91-2.15-6.26-3.13s-3.52-1.57-4.2-.39-1.28,4.4-3,3.72-2.34-.89-4.11-4.11-2.44-2.25-2.73-4.11,1.37-2.25,1.85-3-1.76-1.47-3.22-.69-3,1.76-3-.49,1.47-3.32,0-4.6S132,50,133,49.4s1.18-1.76,2.94-1.17,4.79,1.86,4.79,1.86-4.79-3.23-3.91-5.29,2-2.34,1-4.59-3.33-3.48-1.76-4.19,2.54.47,3.52.57,2.64-.49,5.48-1.37.39,1.07,6.06-1.08,6.16-5.57,12.62-6.46,6.75-3.32,12.42-2.83,9.1,2.35,11.55,2.64,3.13-.78,5.87-.39,2.74-.78,2.83,1.66a16.08,16.08,0,0,0,1.18,4.79c.29,1.18-1.27,1.67.59,3s1,2.74,2.8,2.15.82-2.15,2.58-2.25a4.36,4.36,0,0,1,3.62,1.76c.78.88,1.07,2.25,3,1.47a14.66,14.66,0,0,0,3-1.47c.59-.39,4.31-1.08,6.78,2.71s12.39,16.17,20,21.39,15.91,11.35,20,12.91S266.35,78,266.35,78s5.22.91-.52-2.35-10.57-8.48-14.61-10.3-4.05-1.44-7.05-5.35-7.17-6.65-8.08-7.43-5.35-4.18-8.35-7.18-4.31-2.48-5.35-5.22-1.56-4.82-2.22-5.34-1.69-2.74-2.74-.79-1.56,3.66-2.73,2.87a19,19,0,0,1-1.83-1.43c-1.7-1.31-2.48-2.48-3.91-1.83s-2.48,1.7-3.39.92-.79-1.7-2-2.48-4.31-.52-5-2.09-1.43-7.43,4.57-6.26,12.39,1.17,16.17,1.3,3.52-.52,6.78,3.39S237.65,52,254.09,62.22s29,21.39,33.13,24.13,7.92,6.68,12.52,8.74,5.67,3.62,8.71,6.36,4.1,2.93,5.18,4.69,1.57,2.84-.68,1.76-6.85-3.42-6.56-2.25,2.45,4.4,4.79,5.28a25.13,25.13,0,0,1,3.36,1.67c.95.39,1.34,2.05,2.22,3.23s.49,1.46,2.74,2.74,3.42,3.52,2.54.68a27.17,27.17,0,0,0-4.3-7.53c-1-1.18-3.72-4.11-1.08-3.23s3.82,4.5,6.66,6.55,4,3.82,5.18,4.8,4.11,4.3,3.91,4.79-3.71-1.76-5.08-2.84-3-2-2.35-.09.1,1.85,2.93,4.1,4.8,1.67,6.07,2.06,2.35.88,2.15,1.66-1.76.49-4.4.3-3.52,1.36-3.43,4.3-1.56,4.6,1.18,5.38,3.27.49,6.67,2.54,4,4.89,5.85,4.89,2.05-1,.88-4.4-1.37-4.6-1.47-4.89.49-.39-1.76-1.76-3.13-2.93-3.23-3.42,2.45-1.28,4.11,0,2.74,1.76,2.55,2.64-2.25-.59-.2.88,4.21,5.18,7.44,9.49,5.86,5.87,5.18,8.21-1.17,4.9,1,9,5.38,10.28,3.42,8.71-5.77-6.26-6.75-6.55-1.66-2.16-3.52-.2.78,2.35-.59,4.31-2.05,5.18,0,3.42,4.41-4.3,5.78-3-3,4.3,1.17,6.26,1.37-4,2.64-4.11,3.13.49,3.23,3.91.19,3.62,2.74,4.89,2.54,3.72,1.95,3.92.79,2.83,2.55,4.4,7,5.09,2.93,3.13-7.14-5.19-8.9-4.4-5.48,3.62-4.11,5.38,2.55,4.3,5,3.71,1.86-2.64,3.23-.88,2.44,2.84,2,5.19S359,208,354.75,208.85s-11.07-.21-13.54,1.12-4,5.25-6.64,6-8.35,5.61-14.22,6.78-10.83.92-13.7,1.31-7.17-.52-7.69.39,3.78,2.74,6.13,4.43,6.52,7.05,6.39,9.52-24.52,28.7-29.61,28.83-7,1-10-1.3-3.79-5-7.7-3.26a20.34,20.34,0,0,0-10,10.3c-1.7,4.43-3.13,1.43-2.87,6s.65,6-3.13,6.26-6.13,1.17-6.92,3.52.92,4.31-3.52,2.48-5.74.65-7.17-3.13-.65-4.3-2.61-7.3-7.57-5.48-8-7.7,2.22-5-.65-7-14.8,4.11-19.11,4.11-5.28.19-10.17,1.37-9.2-3.29-11-2.62-1,5.94-.39,11-1.17,9.39-1.37,13.11.2,3.71-2.54,4.69-2.94-2.74-7.05-3.91a33,33,0,0,0-10.37-1.37,18,18,0,0,1-6.45-1.17Z"/></g><g id="Eastern"><path class="cls-1" d="M380.87,483.65l.17-.3a19.21,19.21,0,0,0,2.44-7.52c.13-3.66-1.18-9.26,0-10.18s8.35.65,12.39-.52,10-1.3,12.39,1.3,3.52,6.64,8.48,7.56,10.6,2.23,12.47,3.92,2.53,3.66,3.44.26,0-3.13,1.57-5.87,2.61-1.3,2.61-5.08-1.31-4.44-.13-6,3-.65,1.69-3-5.09-4.05-3.65-10.31,2.22-5.21,2.09-9.13-2.22-9.65-.13-13,6.65-7,12-5.48,8.44,2.19,9.32-.37,1.37-5.89-.1-7.94-6.26-7.15-6.35-9.49,1.56-18.3,3-26.71,1.95-17.32.58-18.2-5.18-.68-6-.88-1.57-1.85-2.45,0-.88,6.17-2.93,7.15-2.55-1-4.5,1.56-3.23,3-2.16,5.67,1.57,7.15-3.42,7.24-8.51.3-7.14-1.86,4.4-3.42,2.93-8.6-1.76-6.46-3.91-7.63-4.4-2.24-6.36-4.4-1.56-3.23-3-2.75-3.91,3.62-4.89,3.33-4-1.47-8.22-2.45a21.23,21.23,0,0,1-7.43-3.32c-1.18-.69-3.33-1.86-5.68-.88s-2.83,3.23-4.6,2-6.26-10.46-7.92-12.62-4.4.79-4.89-5.87,1.17-12.32,4.3-16.53,9.3-5.87,8.61-8.22-4.79-2.64-5.18-3.42a5.76,5.76,0,0,0-2.35-3.23c-1.86-1.27-2.74.49-2.84-2.54s1.67-2.25-.19-5.58-3.92-4.3-5.09-9-.49-3.91-1.86-7.14-3-2.25-2.35-4.79,3.13-3.72,1.76-9.69-4.4-8.8-5-13.5A19.58,19.58,0,0,1,365.87,237c1.83-2.22.91-8.87-2.74-10.57s-14.48-8.67-15.46-9.06-6.55-3.42-7.72-3.91.09-4,3.32-4.11,12.33,0,15.56-1.37a59.51,59.51,0,0,0,7.92-4.6,16.23,16.23,0,0,0-.1,4.89c.39,2.25.88,3.62,2.84,3.91s1.17-.29,3.13-1.76,3.81-.19,4.4-2.64-1.56-4.3-.78-5.87,5.28-.49,6,1.57-.3,3.81,1.07,4.5,3.62,1.56,3.82,2.44,1.95,2.45-1.08,2.45-7.14-.88-3.81.2,5.87.09,7.33,2.34,3.72,5.68,6.07,7.54,2.85,2.54,3.58,4.3,1.51,6.16,1.7,4.21-1.37-5.87,1-5.87,6.06,5.38,6.95,8.12.48,6,2.54,7.82,6.16,2.45,2.74,2.74-5.28-.78-5,.49,2.84,4.6,4.5,3.72,1.56-3.62,3.23-2.74,5.28,5.28,5.48,6.55-.59.79-2.55-.29-4.6-1.86-4.6,0,1.67,2.54,3.53,3.13,2.93.69,3.22,2.84-.29,8.41.79,10.37,5.38,3.71,4.5-.69-4.11-11.74-2.35-11.25,4.79,7.67,6.75,9.82,4.69,1.5,3.19,4.3-.71,11.09,1.05,13.57,4.17,8,2,8.61-2.35-1.18-3.46-3-5.15-4.37-5.54-2.42,1.11,4.7.65,5.87,3.26,6.46.78,7.18-4.17,2-4.69-1.05-2.15-3.26-3.39-4.3-2.15-1.89-3.39-1.05-7.11,5-7.24,6.72.58,3.92,2.61,3.39.65-1.17,2.41-3.19,2.54-3.85,5-2.55,4.63,3.72,4.89,5.94,1.63,1.69,4.44,3.59,2.67,4.1,5.93,3.45,7.11-1.76,8.74-.26,4.37,7.11,5.35,5.15,5.15-7.1,3.13-7.24-5.54,4-6.07.66-2.34-6.33-.32-8.42,3.45-5.08,5.41-4.95,3.39,3.58,3.78,5.54,1.63-1.17,2.48-1.43,4.18,2,2.94,3.78-3,1.43-1.57,2.87,5.28,8,5.48,9.88.1,7.53,1.56,10.56,4.5,5.38,3.53,6.17-3.92-.69-5-3.23-2.25-7.63-4.7-7.53-2.84.49-1.76,2.83,3.33,2.25,2.54,3.92-1.56,3,.69,4.59,3,4.6,4,3.92,4.39-1.86,4.4,1.76,3.78,20.54,5,23.8,3.45,9.2,4.11,11.35,1.5,6.07,1.3,7.43.59,5.16-1.69,2.35-3.46-6.52-4.7-10.17-1.76-6.72-2.74-7-4.43-1.57-4.56,0,4.17,5.21,1.89,7-3.07.2-5,.33-2.28,2.35.2,3.39,10.63-.46,10.89,2.67-.59,4.64,1,5,3,.65,2.54,3.13,1,6.78,2.54,4.37,0-18.72,0-18.72,1.86.33,2.35,3,3.72,7.63,3.62,14,1,9,3.33,10.95,1.07.1,3.62,2.45.29,3.42,3.22,3.72,4.9-4,7.54-1.77-3.62,3.43-3.62,6.36v3.82a16.62,16.62,0,0,1-3.75,2.84c-1.57.65-2.09.06-2.68,2.6s-2,3.53-.52,5.55,3.26.78,2.94,3-.59,2.28.91,3.32,2.41.46,2.48,2.68.13,3.19-1.76,3.19-5.74-.32-3.66,1.37,6.07,2.35,7.37,1.24,2.55-2.22,1.5-4.82-3.32-4.24-4.63-5.68-3.19-4.17-2.74-6.78.2-4.5,2.87-5.41,2.87-.79,3.59-2.16.72-2.26,1.89-2.17,2.09,1.78,2.22,3.35.46,1.95,1.83,2.22,3,.13,2.15,1.3-3.13.06-3.65,2.8-.88,6.92,1.27,9.17,3.42,5.18,6.06,5.38,3.52-1.86,4.31-.79.19,5.78,2.54,8.32,3.42,4.21,7.24,5.18,4.4.3,4.79,1-.78,2.16.88,4.89,2.35,2.06,2.16,4.21-1.37,4-2.55,2.15-.39-4.5-2.15-3.23-2.35,2.65-3,2.55-.59.29-.79-2.84.1-2.74-3-4.6-6.94-5.38-10.76-4.59-3.62,2.54-4.21,4.4-1.66,2.74-2.73,4.2-2.16,2.25-.49,2,4.11-2.64,5.87-1.08,5,3.92,5.08,1.08-1.46-6.16,1.18-4.4,2.6,2.84,4.33,2.74,2.61-1.18,2.61.78-3.46,1.37-2.61,2.84a2.87,2.87,0,0,0,2.42,1.56c.29,0,2.15-1.27,3,1.47s1.76,3.42,4.89,5.28,2.74,3.92,1.57,4.7a2,2,0,0,0-.79,2.84c.59,1.07,2.45.78,2.74,2.83s.49.78.79-1.95,3.22-4.41,4.59-2.55,2.74,4,4.11,4.89,3.52,1.76,2.25,2.84-3.91-.2-2.25,1.57,3.23,1.76,4.21,2.83,2.54,2,.68,2.45-3.62-.2-3.52,1.07,4.79,2.45,3.13,4.21-6.16-3-5.77-.19.1,3.81,1.66,3.81,5.09-2.84,6.07,0-2.64,3.33-5.28,3.52-5.78-.39-3.92.78,5.68.89,6.65,2.35a7.14,7.14,0,0,1,.49,6.07c-.78,2-2.54,3.32-.49,2.64s3.33-5.38,4.31-2.15-.39,3.62,1.17,6.45.2,6.66,2.35,5.09,2.25-7,5.09-7.14,2.64,2.25,2.83,6.85,1.37,5.08,3.33,7.63,2.84,2.35,3.13,5.48,1.37,4.89,1.66,6.45-2.25,2.35-1.95,3.52,1.71.88,2,2.25,0,.69,0,4.5,0,5.58-.81,5.87-2,.2-1.66,2.55.49,7.43-.39,8.7-.3.79-2.35,1.57a10.14,10.14,0,0,0-4.7,3.72c-1,1.46-1.66,1-.39,2.34s1.57,3.82,2.06,4.6,1.95.88,3.32-2.74,2.64-6.65,2.64-6.65,1.47,12.82.69,15.36-2.74,3.13-3.62,2.84-2.74-2.7-2.94.07,2.74,4.82,2.45,7.56,1.76,2.25,3.72,2.25,3.81,0,3.81,1.66.39,6.65-1.66,6.06-3.42-.88-2.84.49,1.47,4.5-.39,3.23-1.47-4.79-2.35-2.25-2.74,5.68-.49,5.38,6-2.74,6.27-1.07-2.06,1.76-2.94,4.5-1,9.39-2.54,10.76-2.64-.3-2.45,1.86,2.25,5.38,1.37,7.24-2.64,1.46-3.62.88-1.95-2.84-1.76-.88,6.36,2.73,5.48,5-5.28,4-5,7.34,1.37,6.16.49,6.36-2.15-1.08-1.86,0,3.82-.29,1.57,3-3.62,2.45-4.11,4.89,1.17,1.08.29,2.94-2.15.68-2.74,1.86-.29,3.23-2.15,3.81-4.4-1.37-2.74,2.64,4.11,4.21,2.84,7.05-1.37,1.76-2.94,4-.39,5.38-2,5.87-3-1.37-3.62-.78,1.86-.4,1.07,3.22-1.07,3.62-2.34,4.11-3.72.1-2.45,2.74-.88,6.65-.88,6.65-7.57.26-9.8-2.23-.79-2.75-3.55-3.44-4.73-1.35-5.45-2.3-2.77-2.4-2.92-4.55-1.62-23-1.29-26,3.81-31.84,4.18-41.36,1.1-10.76.24-12.84-3-4.34-3.16-5.65.57-1.06.7-2.68a6.76,6.76,0,0,0-1.23-4.45c-.86-1.14-1.38-.95-1.06-2.1s2.55-4.36,1.33-6.94-5.14-3-6.76-3.31-10.52-2.1-12.46-3.55-1.88-5.86-3.16-8.26-3.4-3.31-3.13-5.21a14.08,14.08,0,0,1,4.37-7.27c2.39-2.1,7.61-9.66,1.22-17.39s-9.78-10.16-10.06-14.09-.69-8-1.78-10.34-2.76-4.11-2.38-5.33,1.48-2.75,1.57-3.93.19-4.56-2.6-3.24-8.64,6.82-9.4,7.34-6.62,2.93-7.69,4.1a7,7,0,0,0-1.8,4.76c-.14,2.24-1.21,2.93-2.08,3.32a6.11,6.11,0,0,0-3.14,3c-.74,1.71-2.79,2-3.92,2.25s-2.71-.59-2.9.17.45,12.2.44,12.84.18,3.77-1.71,3.18-3.1-2-3.65-.73a18.52,18.52,0,0,0-.72,3.65c-.21.8-1.33.3-2.36-.58s-6.13-6.39-6.35-7.74.63-10.61-2.62-10.86-2.85-.64-5.38.52-5.87-7.65-5.87-7.65-4.21-9.66-2.95-12.94,3.31-6.84,2.78-9.93-.74-3.58-.4-4.46-.17-12.68-5-13.09-12.46,9.23-14.56,10.55-6.7,4.84-10.37,2-7.64-6.65-7.94-8.82.23-7.69-2-9.55-3.46-3-5.22-2.69l-1.76.28Z"/><path class="cls-2" d="M381.17,483.87s.07-.11.17-.3a19.33,19.33,0,0,0,2.44-7.53c.13-3.65-1.17-9.26,0-10.17s8.35.65,12.39-.52,10.05-1.31,12.39,1.3,3.53,6.63,8.48,7.56,10.6,2.22,12.48,3.92,2.52,3.65,3.44.26,0-3.13,1.56-5.87,2.61-1.3,2.61-5.09-1.3-4.43-.13-6,3-.65,1.7-3-5.09-4-3.66-10.3,2.22-5.22,2.09-9.13-2.22-9.65-.13-13.05,6.65-7,12-5.47,8.45,2.18,9.33-.38,1.37-5.88-.1-7.94-6.26-7.14-6.36-9.49,1.56-18.29,3-26.7,2-17.32.59-18.2-5.19-.68-6-.88-1.56-1.86-2.44,0-.88,6.16-2.94,7.14-2.54-1-4.5,1.57-3.23,3-2.15,5.67,1.56,7.14-3.43,7.24-8.51.29-7.14-1.86,4.41-3.42,2.94-8.61-1.76-6.45-3.91-7.63-4.41-2.23-6.36-4.39-1.57-3.24-3-2.75-3.91,3.62-4.89,3.33a83.47,83.47,0,0,0-8.21-2.45,21.27,21.27,0,0,1-7.44-3.33c-1.17-.68-3.33-1.85-5.67-.88s-2.84,3.23-4.6,2.06-6.26-10.47-7.93-12.62-4.4.78-4.89-5.87,1.18-12.33,4.31-16.53,9.29-5.87,8.61-8.22-4.8-2.64-5.19-3.42a5.73,5.73,0,0,0-2.35-3.23c-1.85-1.27-2.74.49-2.83-2.55s1.66-2.25-.2-5.57-3.91-4.31-5.09-9-.48-3.92-1.85-7.14-3-2.25-2.35-4.8,3.13-3.71,1.76-9.68-4.4-8.81-5-13.5a19.6,19.6,0,0,1,3.42-12.65c1.83-2.22.92-8.87-2.74-10.57S349,218,348,217.59s-6.56-3.43-7.73-3.92.1-4,3.33-4.11,12.32,0,15.55-1.37a59.18,59.18,0,0,0,7.92-4.59,16,16,0,0,0-.09,4.89c.39,2.25.88,3.62,2.83,3.91s1.18-.29,3.13-1.76,3.82-.2,4.41-2.64-1.57-4.31-.79-5.87,5.29-.49,6,1.56-.29,3.82,1.08,4.5,3.62,1.57,3.81,2.45,2,2.45-1.07,2.45-7.15-.89-3.82.19,5.87.1,7.34,2.35,3.71,5.67,6.06,7.53,2.86,2.54,3.58,4.31,1.51,6.16,1.71,4.2-1.37-5.87,1-5.87,6.07,5.38,6.95,8.12.49,6,2.54,7.83,6.17,2.44,2.74,2.74-5.28-.79-5,.49,2.84,4.59,4.5,3.71,1.57-3.62,3.23-2.74,5.28,5.29,5.48,6.56-.59.78-2.54-.29-4.6-1.86-4.6,0,1.66,2.54,3.52,3.13,2.93.68,3.23,2.83-.3,8.42.78,10.37,5.38,3.72,4.5-.68-4.11-11.74-2.35-11.25,4.8,7.66,6.75,9.81,4.7,1.5,3.2,4.31-.72,11.08,1,13.56,4.18,8,2,8.61-2.34-1.17-3.45-3-5.16-4.37-5.55-2.41,1.11,4.69.66,5.87,3.26,6.45.78,7.17-4.18,2-4.7-1-2.15-3.26-3.39-4.31-2.15-1.89-3.39-1-7.11,5-7.24,6.72.59,3.91,2.61,3.39.65-1.17,2.41-3.2,2.55-3.84,5-2.54,4.63,3.72,4.9,5.93,1.63,1.7,4.43,3.59,2.67,4.11,5.94,3.46,7.1-1.76,8.73-.26,4.37,7.11,5.35,5.15,5.15-7.11,3.13-7.24-5.54,4-6.06.65-2.35-6.32-.33-8.41,3.46-5.09,5.41-5,3.4,3.59,3.79,5.55,1.63-1.18,2.48-1.44,4.17,2,2.93,3.78-3,1.44-1.57,2.87,5.29,8,5.48,9.88.1,7.54,1.57,10.57,4.5,5.38,3.52,6.16-3.91-.68-5-3.23-2.25-7.63-4.69-7.53-2.84.49-1.77,2.84,3.33,2.25,2.55,3.91-1.57,3,.68,4.6,3,4.6,4,3.91,4.4-1.86,4.4,1.76,3.79,20.55,5,23.81,3.46,9.19,4.11,11.35,1.5,6.06,1.31,7.43.58,5.15-1.7,2.35-3.46-6.52-4.7-10.18-1.76-6.71-2.74-7-4.43-1.56-4.56,0,4.17,5.22,1.89,7-3.06.19-5,.33-2.28,2.34.2,3.39,10.63-.46,10.89,2.67-.59,4.63,1,5,3,.65,2.54,3.13,1,6.79,2.55,4.37,0-18.72,0-18.72,1.86.33,2.34,3,3.72,7.63,3.62,14,1,9,3.33,11,1.08.1,3.62,2.44.29,3.43,3.23,3.72,4.89-4,7.53-1.76-3.62,3.42-3.62,6.36v3.81a16.08,16.08,0,0,1-3.75,2.84c-1.56.65-2.09.07-2.67,2.61s-2,3.52-.52,5.54,3.26.79,2.93,3-.59,2.29.91,3.33,2.42.46,2.48,2.67.13,3.2-1.76,3.2-5.74-.33-3.65,1.37,6.06,2.35,7.37,1.24,2.54-2.22,1.5-4.83-3.33-4.24-4.63-5.67-3.2-4.18-2.74-6.79.19-4.5,2.87-5.41,2.87-.78,3.58-2.15.72-2.26,1.9-2.17,2.08,1.78,2.21,3.34.46,2,1.83,2.22,3,.13,2.15,1.31-3.13.06-3.65,2.8-.88,6.91,1.27,9.16,3.43,5.19,6.07,5.38,3.52-1.86,4.3-.78.2,5.77,2.54,8.32,3.43,4.2,7.24,5.18,4.41.29,4.8,1-.79,2.15.88,4.89,2.35,2.05,2.15,4.21-1.37,4-2.54,2.15-.4-4.5-2.16-3.23-2.34,2.64-3,2.54-.59.3-.78-2.83.1-2.74-3-4.6-7-5.38-10.76-4.6-3.62,2.54-4.21,4.4-1.66,2.74-2.74,4.21-2.15,2.25-.49,2,4.11-2.64,5.87-1.08,5,3.91,5.09,1.08-1.47-6.17,1.17-4.41,2.61,2.84,4.34,2.74,2.61-1.17,2.61.79-3.46,1.37-2.61,2.83a2.86,2.86,0,0,0,2.41,1.57c.29,0,2.15-1.27,3,1.47s1.76,3.42,4.89,5.28,2.74,3.91,1.57,4.69a2,2,0,0,0-.78,2.84c.58,1.08,2.44.78,2.74,2.84s.49.78.78-2,3.23-4.4,4.6-2.54,2.74,4,4.11,4.89,3.52,1.76,2.25,2.84-3.92-.2-2.25,1.56,3.22,1.76,4.2,2.84,2.55,1.95.69,2.44-3.62-.19-3.52,1.08,4.79,2.45,3.13,4.21-6.17-3-5.78-.2.1,3.82,1.67,3.82,5.08-2.84,6.06,0-2.64,3.32-5.28,3.52-5.77-.39-3.91.78,5.67.88,6.65,2.35a7.16,7.16,0,0,1,.49,6.06c-.78,2.06-2.55,3.33-.49,2.64s3.32-5.38,4.3-2.15-.39,3.62,1.18,6.46.19,6.65,2.34,5.09,2.25-7,5.09-7.15,2.64,2.25,2.84,6.85,1.37,5.09,3.32,7.63,2.84,2.35,3.14,5.48,1.36,4.89,1.66,6.46-2.25,2.35-2,3.52,1.71.88,2,2.25,0,.68,0,4.5,0,5.58-.8,5.87-2.06.19-1.67,2.54.49,7.44-.39,8.71-.29.78-2.35,1.56a10.17,10.17,0,0,0-4.69,3.72c-1,1.47-1.67,1-.39,2.35s1.56,3.81,2,4.6,2,.88,3.33-2.74,2.64-6.65,2.64-6.65,1.47,12.81.68,15.35-2.74,3.14-3.62,2.84-2.74-2.7-2.93.07,2.74,4.82,2.44,7.56,1.77,2.25,3.72,2.25,3.82,0,3.82,1.67.39,6.65-1.67,6.06-3.42-.88-2.83.49,1.46,4.5-.39,3.23-1.47-4.8-2.35-2.25-2.74,5.67-.49,5.38,6-2.74,6.26-1.08-2,1.76-2.94,4.5-1,9.39-2.54,10.76-2.64-.29-2.44,1.86,2.25,5.38,1.37,7.24-2.65,1.47-3.62.88-2-2.84-1.77-.88,6.36,2.74,5.48,5-5.28,4-5,7.34,1.37,6.16.49,6.36-2.15-1.08-1.86,0,3.82-.3,1.57,3-3.62,2.44-4.11,4.89,1.17,1.08.29,2.93-2.15.69-2.73,1.86-.3,3.23-2.16,3.82-4.4-1.37-2.74,2.64,4.11,4.21,2.84,7-1.37,1.76-2.93,4-.4,5.38-2.06,5.87-3-1.37-3.62-.78,1.86-.39,1.08,3.23-1.08,3.62-2.35,4.11-3.72.1-2.45,2.74-.88,6.65-.88,6.65-7.57.26-9.8-2.23-.79-2.76-3.54-3.44-4.74-1.35-5.46-2.3-2.77-2.4-2.91-4.55-1.63-23-1.29-26,3.8-31.84,4.17-41.35,1.1-10.76.25-12.84-3-4.35-3.17-5.65.57-1.07.7-2.68a6.76,6.76,0,0,0-1.22-4.45c-.86-1.14-1.39-1-1.06-2.11s2.54-4.35,1.32-6.94-5.13-3-6.76-3.31-10.52-2.1-12.46-3.54-1.88-5.86-3.15-8.26-3.41-3.32-3.14-5.22a14.13,14.13,0,0,1,4.37-7.26c2.39-2.1,7.61-9.66,1.22-17.39s-9.78-10.16-10.06-14.1-.68-8-1.78-10.33-2.75-4.12-2.38-5.33,1.48-2.75,1.58-3.94.18-4.56-2.61-3.23-8.64,6.82-9.39,7.34-6.63,2.93-7.7,4.1a7,7,0,0,0-1.79,4.76c-.14,2.24-1.21,2.93-2.08,3.31a6.08,6.08,0,0,0-3.15,3c-.73,1.72-2.79,2.06-3.91,2.25s-2.71-.59-2.9.17.45,12.21.43,12.84.18,3.77-1.71,3.18-3.1-2-3.65-.73a19.51,19.51,0,0,0-.72,3.66c-.21.79-1.33.3-2.36-.58s-6.13-6.39-6.34-7.74.62-10.61-2.62-10.86-2.86-.64-5.39.52-5.86-7.66-5.86-7.66-4.21-9.66-3-12.94,3.31-6.84,2.79-9.93-.75-3.58-.41-4.46-.16-12.67-5-13.09S409.05,503.69,407,505s-6.71,4.85-10.38,2-7.64-6.66-7.93-8.83.23-7.68-2-9.54-3.46-3-5.22-2.7l-1.76.29Z"/></g><g id="North_Central" data-name="North Central"><path class="cls-1" d="M162.84,353.18s-1.23-6.55-1-10.14-2.8-7.36-4.11-9.22-2.13-5.66-1.46-6.7.59-1.08,1.71-1.32a9.69,9.69,0,0,0,6-5.21c1.55-3.49.55-6,1.73-6.12s4.37.23,5.48-1.33,3.73-6.82,3.93-9-1.52-5-1.27-5.61,2.87-1.21,3.22-2.69,0-4.14.69-6.5a33.34,33.34,0,0,0,.86-9.1c-.19-1.61-1-8.46-.6-9.6s.83-2.24,2.48-1.49,5.31,2.84,8.5,2.58,3.68-1.35,9.5-1.51a34.63,34.63,0,0,0,11.65-2.83s5.8-2.51,8.52-1.56,1.72,4.13,1.53,4.83-1,2.89.43,3.81,6.66,5.09,7.53,6.89a48,48,0,0,1,2,6s.35,2.87,2.27,3a18.11,18.11,0,0,1,5.17.89c1.65.59,3.15,1.18,3.23-.13s.63-5.43,4.28-5.46,6.34-.29,6.21-3.28-.83-5.63.88-6.66,2.7-5,4-6.54,7.32-7.43,10-7,5.33,3.59,5.61,3.8a8.21,8.21,0,0,0,3,1.44c1.14.13,4.33,0,5.7-.08a9.06,9.06,0,0,0,4.69-1.63c1.48-1.07,14.62-12.82,19.32-18.31s7.3-7.92,6.79-10.11-4.51-7.26-6.21-8.36-5.94-3.68-6.13-4.43,4,0,4,0,12-.78,14.67-1.24,8.16-2.74,11.73-4.4,5.48-2.6,6.49-3.52,3.66-3,3.66-3,4.7,3.79,8.15,5.09,11.55,7.6,12.85,7.68,3.38,2.31,4.4,2.82,2.06,3.91,2.12,5.8-1.79,4.88-3,6.58-2.28,8.32-1.25,11.12,5.3,11,5,14.14-1.74,5.59-2,6.95a5.33,5.33,0,0,0,2,4.74c1.57,1.21,1.72,8.36,3.18,10.68s3.13,3.84,4,5.89.74,1.71.47,3.65-.82,3.57.63,3.88,2.79.57,3.53,2.19.15,1.7,2.67,2.54,3.69,1.67,3.31,3-6.41,5.6-7.84,6.77-4.86,7-5.19,14.28,1.51,7.73,2.7,8,2.61.59,4.22,4.26,5.14,9.35,6.41,9.66,2.77-1.77,3.9-2.16a4.75,4.75,0,0,1,4.34,0,68.65,68.65,0,0,0,8.74,4.06c3.22,1.09,5.91,2.17,7.62,2.51a2.54,2.54,0,0,0,3-1.29c.62-1,3.42-3.19,4.32-1.24s5.5,5.54,7.5,6.19,3.19,4.16,3.75,6.19,2.24,5.74,0,7.12-3.83,4.47-1.9,4.72,7.85.6,8.92-.31a5.62,5.62,0,0,0,1.41-5.73c-.73-2.74-1-2.19.23-4.2s1.41-2.85,2.68-3.54,2.63-.33,3.68-.65,1.38-2,1.83-3.95,1.06-4.2,2.4-3.58a34.1,34.1,0,0,0,5.63,1.41c1.45.32,1.38,1.27,2,2.82S454,377.86,453,387.08s-1.7,15.56-1,16.83,7,7.84,6.94,9.65-.06,7.58-2.6,7.92-9-1.71-10.36-1.59-9,2.17-10.14,8.51,2.2,8.83.74,13.37-2.7,8.83-1.72,11.4,3.53,4.1,3.79,5.58-.44,1.06-1.72,2.19-.06,5-.11,6.28a5.93,5.93,0,0,1-2.32,4.61c-1.92,1.52-1.65,6.51-2.28,7.57s-.78.64-2.15-.62-4-3.24-6.82-3.36-7.6-1.19-9.23-2.41-5-6.5-6.6-7.28-6.27-2.2-9.31-1.11-7.93.95-9.36.88-5.07-.07-7.29-.11-6,.59-9.08.58-8.34-1.11-9.48.07-3.56,1.89-4.54,4.24-1.13,2.61-2.67,1.63-4-3.39-5.68-2.44-.78,2-1.76,2.51-4.52.12-7-.09-4.82.31-5.69.05-1.84,0-1.8-2.31-.76-12.05-.84-13.62-.92-5.91,1.21-6.17,7.3.69,7.75-5.21S344,423,345.72,421.14s5.35-5.38,5.82-6.45.38-2.62-1.91-2.23-2.35.69-3.3-.65-2.69-1.92-3.46-.94a3.85,3.85,0,0,0-1.13,3.28c.11,1.76-.2,2.14-1.18,1.18s-3.06-9-6.84-9.34a13.36,13.36,0,0,0-9.32,2.31c-2.34,1.74-6.48,4.66-8.65,4.95s-4.37,1-5.1,3.53-1.9,7.15-3.14,8.81-5.27,7.17-6.3,9.64-1.74,4.38-3.43,4.1-2.53-3.23-6.33-1.76-5.55,4-10.3,4.14-6.52.14-6.52.14-3.41-2.28-3.06-5.29,1.72-6.75-.07-8.36-2.82-1.8-3.54-5.62-.07-5.26-2.27-6.22-5.43-1.06-6.18-5.23-1.1-3.26-1.39-5.9.13-3.81-.08-4.73-1.79-3.88-3.56-4.45-3.6.59-5.84-1.42-7.2-9.35-10.6-9.19-5.26,1-10.26-1.79S216.24,377,212.5,377s-6.54-4.7-11.08-5.51-10.51-3-12.38-4.4-8-6.28-10.86-7.32-4.5-2.54-5.45-1.23-2.88,4.13-4.41,3.81S162.84,353.18,162.84,353.18Z"/><path class="cls-2" d="M162.84,353.18s-1.23-6.55-1-10.14-2.8-7.36-4.11-9.22-2.13-5.66-1.46-6.7.59-1.08,1.71-1.32a9.69,9.69,0,0,0,6-5.21c1.55-3.49.55-6,1.73-6.12s4.37.23,5.48-1.33,3.73-6.82,3.93-9-1.52-5-1.27-5.61,2.87-1.21,3.22-2.69,0-4.14.69-6.5a33.34,33.34,0,0,0,.86-9.1c-.19-1.61-1-8.46-.6-9.6s.83-2.24,2.48-1.49,5.31,2.84,8.5,2.58,3.68-1.35,9.5-1.51a34.63,34.63,0,0,0,11.65-2.83s5.8-2.51,8.52-1.56,1.72,4.13,1.53,4.83-1,2.89.43,3.81,6.66,5.09,7.53,6.89a48,48,0,0,1,2,6s.35,2.87,2.27,3a18.11,18.11,0,0,1,5.17.89c1.65.59,3.15,1.18,3.23-.13s.63-5.43,4.28-5.46,6.34-.29,6.21-3.28-.83-5.63.88-6.66,2.7-5,4-6.54,7.32-7.43,10-7,5.33,3.59,5.61,3.8a8.21,8.21,0,0,0,3,1.44c1.14.13,4.33,0,5.7-.08a9.06,9.06,0,0,0,4.69-1.63c1.48-1.07,14.62-12.82,19.32-18.31s7.3-7.92,6.79-10.11-4.51-7.26-6.21-8.36-5.94-3.68-6.13-4.43,4,0,4,0,12-.78,14.67-1.24,8.16-2.74,11.73-4.4,5.48-2.6,6.49-3.52,3.66-3,3.66-3,4.7,3.79,8.15,5.09,11.55,7.6,12.85,7.68,3.38,2.31,4.4,2.82,2.06,3.91,2.12,5.8-1.79,4.88-3,6.58-2.28,8.32-1.25,11.12,5.3,11,5,14.14-1.74,5.59-2,6.95a5.33,5.33,0,0,0,2,4.74c1.57,1.21,1.72,8.36,3.18,10.68s3.13,3.84,4,5.89.74,1.71.47,3.65-.82,3.57.63,3.88,2.79.57,3.53,2.19.15,1.7,2.67,2.54,3.69,1.67,3.31,3-6.41,5.6-7.84,6.77-4.86,7-5.19,14.28,1.51,7.73,2.7,8,2.61.59,4.22,4.26,5.14,9.35,6.41,9.66,2.77-1.77,3.9-2.16a4.75,4.75,0,0,1,4.34,0,68.65,68.65,0,0,0,8.74,4.06c3.22,1.09,5.91,2.17,7.62,2.51a2.54,2.54,0,0,0,3-1.29c.62-1,3.42-3.19,4.32-1.24s5.5,5.54,7.5,6.19,3.19,4.16,3.75,6.19,2.24,5.74,0,7.12-3.83,4.47-1.9,4.72,7.85.6,8.92-.31a5.62,5.62,0,0,0,1.41-5.73c-.73-2.74-1-2.19.23-4.2s1.41-2.85,2.68-3.54,2.63-.33,3.68-.65,1.38-2,1.83-3.95,1.06-4.2,2.4-3.58a34.1,34.1,0,0,0,5.63,1.41c1.45.32,1.38,1.27,2,2.82S454,377.86,453,387.08s-1.7,15.56-1,16.83,7,7.84,6.94,9.65-.06,7.58-2.6,7.92-9-1.71-10.36-1.59-9,2.17-10.14,8.51,2.2,8.83.74,13.37-2.7,8.83-1.72,11.4,3.53,4.1,3.79,5.58-.44,1.06-1.72,2.19-.06,5-.11,6.28a5.93,5.93,0,0,1-2.32,4.61c-1.92,1.52-1.65,6.51-2.28,7.57s-.78.64-2.15-.62-4-3.24-6.82-3.36-7.6-1.19-9.23-2.41-5-6.5-6.6-7.28-6.27-2.2-9.31-1.11-7.93.95-9.36.88-5.07-.07-7.29-.11-6,.59-9.08.58-8.34-1.11-9.48.07-3.56,1.89-4.54,4.24-1.13,2.61-2.67,1.63-4-3.39-5.68-2.44-.78,2-1.76,2.51-4.52.12-7-.09-4.82.31-5.69.05-1.84,0-1.8-2.31-.76-12.05-.84-13.62-.92-5.91,1.21-6.17,7.3.69,7.75-5.21S344,423,345.72,421.14s5.35-5.38,5.82-6.45.38-2.62-1.91-2.23-2.35.69-3.3-.65-2.69-1.92-3.46-.94a3.85,3.85,0,0,0-1.13,3.28c.11,1.76-.2,2.14-1.18,1.18s-3.06-9-6.84-9.34a13.36,13.36,0,0,0-9.32,2.31c-2.34,1.74-6.48,4.66-8.65,4.95s-4.37,1-5.1,3.53-1.9,7.15-3.14,8.81-5.27,7.17-6.3,9.64-1.74,4.38-3.43,4.1-2.53-3.23-6.33-1.76-5.55,4-10.3,4.14-6.52.14-6.52.14-3.41-2.28-3.06-5.29,1.72-6.75-.07-8.36-2.82-1.8-3.54-5.62-.07-5.26-2.27-6.22-5.43-1.06-6.18-5.23-1.1-3.26-1.39-5.9.13-3.81-.08-4.73-1.79-3.88-3.56-4.45-3.6.59-5.84-1.42-7.2-9.35-10.6-9.19-5.26,1-10.26-1.79S216.24,377,212.5,377s-6.54-4.7-11.08-5.51-10.51-3-12.38-4.4-8-6.28-10.86-7.32-4.5-2.54-5.45-1.23-2.88,4.13-4.41,3.81S162.84,353.18,162.84,353.18Z"/></g><g id="North_Western" data-name="North Western"><path class="cls-1" d="M132.93,554.58s-1.65-11-3-15.56-2.34-8.8-3-11.54-1.56-12.33-2-15.36-1.37-3.62-2.65-5.19A17.84,17.84,0,0,1,119,499.5c-.39-2.64-1.86-5.58-.59-5.67s3.42-1.18,4.4,1.95.49,3.72,1.27,6.17-.23.09,1.36,3.52,2.28,4.2,2.67,4.5,2.72-1.27,1.75-4.7-11.45-15.45-10.37-17.9,5.67-1.86,4.79-4.21a41.91,41.91,0,0,0-2.06-4.4,178,178,0,0,1-1.4-18.85c.13-3.91,1.57-3.13-.13-6.65s-8-15.26-8.22-20.61-6.26-21.39-8.08-24.78,0-16-1.31-19.83-3.78-5-3.26-8.34,3-6,2.74-8.35-3.52-10.83-1.69-11.22a4,4,0,0,0,3.39-2.48c.91-1.69,2.54-5.54,4-8.54a28.62,28.62,0,0,1,3.85-6c.19,0-.2-2.22,1-5s3.33-4.82,4-4,.93,3.46-.81,6.32-2,2.81-2.71,4.11a10.72,10.72,0,0,0-1.11,5.35c0,2.41.2,3.59-1,4s-2.42-.85-2.74,1.3-1.89,3.13,0,2.94,5.87-7.37,6.45-5.15-.45,7.69-2.6,8.67-2,3.52-1.18,5.74,1.24-.59-.06,3.13-2.35,6.13-3.07,6.26a1.51,1.51,0,0,0-.91,2.28c.65,1.18,1.3,1.89.91,5.61s-2.09,3.33,1.37,5.55,2.94,4.3,1.3,4.82-.45,2.48-.65,4.5-.78,7.83,3.26,8.94,9-2.29,10.18.91.71,18.59-.13,21.65a65.2,65.2,0,0,0-2.48,13.24c-.2,4.57,2.35,8.94,4,9.85s3.33-4.7,1.89-8.87-2.61-27.82-.26-34,3.23-8.71.3-11.93-4.21-4.11-5.58-6.36-3.62-4.21-2.15-4a4.34,4.34,0,0,0,4.6-2.74c.78-2.25,1.56-4.7,4.4-6.56s3.52-2.74,1.76-4.4-6.65-4.4-4.89-6.06,3.13-.4,2-2.35-5.09-5.28-5.28-8-.2-.2,1.37-3.13.78-5.48,3-8.12,2.06-2.84,4.21-5.19,4-3,3.32-3.72-3,2.65-3.13,0,2.06-10.07,1.47-14.47-2.84-5.09-1-7.63,6.17-4,5.68-8.12-1.67-9-.59-11.65,1.56-4.1,4.79-4.69,3.92-2.25,5.77-2,5.44,1.76,11.55,2.36,11.41,1.35,12.91,3.25a19.35,19.35,0,0,1,3.78,6.91c.53,2.35-2.87,10.9-5.41,11.55s-4.56-.92-4.56,1.63a12.11,12.11,0,0,1-4.11,8.61c-2.68,2.08-3.79.71-4.63,2.21s.58,6.66,2.67,9.53,2.54,5.15,2.54,9.71.79,7.24,3.33,11.74,2,5.42,4.7,4.18,2.34-4.7,5.08-3.59a43.29,43.29,0,0,1,12.39,7.37c5.09,4.3,8,3.78,14,5.74s5.09,2.74,9.52,4.82,3.92.66,8.87,3,5.48,3.66,11.48,5.74,7.3-1.69,11.61,3.13,4,5.74,7.17,7.18,4.83-.52,6.65,2.61,1.83.52,1.44,4.17,1.3,4.83,1.43,6.91-.26,5.09,3.92,6.39,3.78,2.35,4.56,6.27-.26,3.39,2.35,5.34,2.74,3.92,2,6.13-.92,6.26,1.3,7.7,1,4,3.26,7.83,4.31,5.34,6.26,8.86,2.35,2,1.83,4.18.65,3.26,2.09,4.69.26,5.22,0,9.13,2.47,4.44,4.17,8.48,3.39,8.74,0,11.61-4.43.65-2.22,4.83,4.44,10,2.87,13.43-2.48,1.05-4.43,3.39.07,5.35-1.4,7.05-1.6.26-3.3,1.56-1.43,2.15-3.13,3.23a4.94,4.94,0,0,1-5.48,0c-1.82-1.14-2.21-3-4-1.79s-.65,1.82-2.48,5.48-1.43,4.69-2.74,4.82a50.48,50.48,0,0,1-5.52-.28s-6.35-10-12.09-8.23-4.69,5.12-4.58,6.68.62,6-5,7.94-12.45,3.83-16.06,6S208.76,557,208.76,557s-6.67-4.25-9.14-7.7-3.14-7.16-7.66-6-9.46,6-11.62,6.42a11.42,11.42,0,0,1-8.72-2.26c-2.77-2.24-4-4.37-8.21-1.65s-5.26,4.37-9.5,5.48-5.27,2.44-6.79,3.09-2.2,1.06-4.78.25S132.93,554.58,132.93,554.58Z"/><path class="cls-2" d="M132.93,554.58s-1.65-11-3-15.56-2.34-8.8-3-11.54-1.56-12.33-2-15.36-1.37-3.62-2.65-5.19A17.84,17.84,0,0,1,119,499.5c-.39-2.64-1.86-5.58-.59-5.67s3.42-1.18,4.4,1.95.49,3.72,1.27,6.17-.23.09,1.36,3.52,2.28,4.2,2.67,4.5,2.72-1.27,1.75-4.7-11.45-15.45-10.37-17.9,5.67-1.86,4.79-4.21a41.91,41.91,0,0,0-2.06-4.4,178,178,0,0,1-1.4-18.85c.13-3.91,1.57-3.13-.13-6.65s-8-15.26-8.22-20.61-6.26-21.39-8.08-24.78,0-16-1.31-19.83-3.78-5-3.26-8.34,3-6,2.74-8.35-3.52-10.83-1.69-11.22a4,4,0,0,0,3.39-2.48c.91-1.69,2.54-5.54,4-8.54a28.62,28.62,0,0,1,3.85-6c.19,0-.2-2.22,1-5s3.33-4.82,4-4,.93,3.46-.81,6.32-2,2.81-2.71,4.11a10.72,10.72,0,0,0-1.11,5.35c0,2.41.2,3.59-1,4s-2.42-.85-2.74,1.3-1.89,3.13,0,2.94,5.87-7.37,6.45-5.15-.45,7.69-2.6,8.67-2,3.52-1.18,5.74,1.24-.59-.06,3.13-2.35,6.13-3.07,6.26a1.51,1.51,0,0,0-.91,2.28c.65,1.18,1.3,1.89.91,5.61s-2.09,3.33,1.37,5.55,2.94,4.3,1.3,4.82-.45,2.48-.65,4.5-.78,7.83,3.26,8.94,9-2.29,10.18.91.71,18.59-.13,21.65a65.2,65.2,0,0,0-2.48,13.24c-.2,4.57,2.35,8.94,4,9.85s3.33-4.7,1.89-8.87-2.61-27.82-.26-34,3.23-8.71.3-11.93-4.21-4.11-5.58-6.36-3.62-4.21-2.15-4a4.34,4.34,0,0,0,4.6-2.74c.78-2.25,1.56-4.7,4.4-6.56s3.52-2.74,1.76-4.4-6.65-4.4-4.89-6.06,3.13-.4,2-2.35-5.09-5.28-5.28-8-.2-.2,1.37-3.13.78-5.48,3-8.12,2.06-2.84,4.21-5.19,4-3,3.32-3.72-3,2.65-3.13,0,2.06-10.07,1.47-14.47-2.84-5.09-1-7.63,6.17-4,5.68-8.12-1.67-9-.59-11.65,1.56-4.1,4.79-4.69,3.92-2.25,5.77-2,5.44,1.76,11.55,2.36,11.41,1.35,12.91,3.25a19.35,19.35,0,0,1,3.78,6.91c.53,2.35-2.87,10.9-5.41,11.55s-4.56-.92-4.56,1.63a12.11,12.11,0,0,1-4.11,8.61c-2.68,2.08-3.79.71-4.63,2.21s.58,6.66,2.67,9.53,2.54,5.15,2.54,9.71.79,7.24,3.33,11.74,2,5.42,4.7,4.18,2.34-4.7,5.08-3.59a43.29,43.29,0,0,1,12.39,7.37c5.09,4.3,8,3.78,14,5.74s5.09,2.74,9.52,4.82,3.92.66,8.87,3,5.48,3.66,11.48,5.74,7.3-1.69,11.61,3.13,4,5.74,7.17,7.18,4.83-.52,6.65,2.61,1.83.52,1.44,4.17,1.3,4.83,1.43,6.91-.26,5.09,3.92,6.39,3.78,2.35,4.56,6.27-.26,3.39,2.35,5.34,2.74,3.92,2,6.13-.92,6.26,1.3,7.7,1,4,3.26,7.83,4.31,5.34,6.26,8.86,2.35,2,1.83,4.18.65,3.26,2.09,4.69.26,5.22,0,9.13,2.47,4.44,4.17,8.48,3.39,8.74,0,11.61-4.43.65-2.22,4.83,4.44,10,2.87,13.43-2.48,1.05-4.43,3.39.07,5.35-1.4,7.05-1.6.26-3.3,1.56-1.43,2.15-3.13,3.23a4.94,4.94,0,0,1-5.48,0c-1.82-1.14-2.21-3-4-1.79s-.65,1.82-2.48,5.48-1.43,4.69-2.74,4.82a50.48,50.48,0,0,1-5.52-.28s-6.35-10-12.09-8.23-4.69,5.12-4.58,6.68.62,6-5,7.94-12.45,3.83-16.06,6S208.76,557,208.76,557s-6.67-4.25-9.14-7.7-3.14-7.16-7.66-6-9.46,6-11.62,6.42a11.42,11.42,0,0,1-8.72-2.26c-2.77-2.24-4-4.37-8.21-1.65s-5.26,4.37-9.5,5.48-5.27,2.44-6.79,3.09-2.2,1.06-4.78.25S132.93,554.58,132.93,554.58Z"/></g><g id="Central"><path class="cls-1" d="M383.48,465.65a22.63,22.63,0,0,0-7.73,0,35.16,35.16,0,0,1-9.88,0c-2.25-.19-3.91.39-6.26,2.94s-1.66,4.59-3.91,3.32-3.82-3-5.68-2.44.1,2-3.52,2.64-6.16-.88-9-.29-4.17-.41-3.75-3-1.92-17.65-.5-18.62,5.23-.2,7-1.57,2.35-8.51,2.64-12.91,1.37-11.94,2.84-14.58,4.3-4,5-5.14,2.54-3.37.19-3.57-3.42,1.08-4.2,0-.69-2.25-2-1.95-2.25-.14-2.84,1.93.78,4.82-1.76,2.57-2.25-7.73-5-8.51-6.85-.69-9.49,1-3.42,2.83-7.43,4.89-4.8,0-6.75,2.83-1.47,7.05-3.72,10.08-5.67,7.43-6.55,10-2.06,5-3.82,3.92-2.15-2.65-6.75-1.38-4.79,3.72-8.9,3.91-6.56.2-6.56.2a10.16,10.16,0,0,0,2.05,7.63c2.87,3.86,6.62,9.42,6.62,9.42s.84.91.78,4,3.75,1.73,3.41,6.72-2.16,5.82.62,10.57,4.78,9.12,4.21,11.94a6.47,6.47,0,0,1-3.59,4.54c-.88.42-2.65.38-.5,3.64s3.89,9.51,3.22,12.35-2.35,2.79-3.31,3.37-2.2,2.14-2.35,4.84.15,3.81-2.47,4.26-2.55,3.29-4.09,3.84-2.76,2.19-4.7,1.21-4.28-3.9-5.21-3-2.77,7.86-4,9.08.79,1.65-1.16,1.74a22.27,22.27,0,0,1-5.21-.77s4.88,7.35,9.4,9.34,3.07,8.55,6.37,10.41,4.56,2.74,4.19,6.16,5.4,10.37,5.4,12.72.06,4-2.84,4.16-3.62-.52-4.26,1.77-1.71,2.6-4.79,2.33-9-.43-9.37,3.58,5,7.8,5.16,9.32-.34,4.54-.16,6.22,2.36,4.77,1.26,6.11a7.05,7.05,0,0,1-4.47,2.81c-2.15.39-4.14-.4-3.34,2.54s2,3.57,1.57,6.43-.53,5.44,3.66,10.11,10,11.05,10.31,13.15-1.3,6.07-4,6.48,0,3.71.84,4.64,1.87,2.78,6.18,3a61.4,61.4,0,0,1,9.95,1.72c.45.07,7.11.09,7.79.21s7.88,2.58,9.17,2.79a6.82,6.82,0,0,0,4.77-.61,7.72,7.72,0,0,1,7.27-1c3.71,1.12,9.75-1.2,11.21-1.62s10.3-2.51,10.3-2.51.68-5.57,1.22-6.71,1.68-1.24,3.21-2.22,2.84-1.12.93-3-5.59-5.51-5.07-7.32.62-4.47-.38-4.91-4,.54-5.85-.11-2.19-4.11-.75-4,7.25.23,8.49-1.22,3.75-6.83,5.24-7.61,9.19-2.88,10.79-3.81,6.33-5.42,10.34-12.66,4.38-9.71,3.48-11.48.3-2.64,0-3.87-1.38-1.35-2-2.43a2.37,2.37,0,0,1,.09-2.8c.59-1,3.62-4.57,1.89-5.68s-5.39-4.1-3.93-6,6.83-2.19,6.83-2.19,7-2.45,8.94-6.56.73-6.66-1.34-8.76-5.71-12.07-5.51-16.09,2-10.37,1.54-13.79.29-13.53-1.6-18,.1-10.71,1-11.83.77-8.55.77-8.55,3.51-6,3.81-8.07a61.63,61.63,0,0,0-.11-8.44A17.23,17.23,0,0,1,383.48,465.65Z"/><path class="cls-2" d="M383.48,465.65a22.63,22.63,0,0,0-7.73,0,35.16,35.16,0,0,1-9.88,0c-2.25-.19-3.91.39-6.26,2.94s-1.66,4.59-3.91,3.32-3.82-3-5.68-2.44.1,2-3.52,2.64-6.16-.88-9-.29-4.17-.41-3.75-3-1.92-17.65-.5-18.62,5.23-.2,7-1.57,2.35-8.51,2.64-12.91,1.37-11.94,2.84-14.58,4.3-4,5-5.14,2.54-3.37.19-3.57-3.42,1.08-4.2,0-.69-2.25-2-1.95-2.25-.14-2.84,1.93.78,4.82-1.76,2.57-2.25-7.73-5-8.51-6.85-.69-9.49,1-3.42,2.83-7.43,4.89-4.8,0-6.75,2.83-1.47,7.05-3.72,10.08-5.67,7.43-6.55,10-2.06,5-3.82,3.92-2.15-2.65-6.75-1.38-4.79,3.72-8.9,3.91-6.56.2-6.56.2a10.16,10.16,0,0,0,2.05,7.63c2.87,3.86,6.62,9.42,6.62,9.42s.84.91.78,4,3.75,1.73,3.41,6.72-2.16,5.82.62,10.57,4.78,9.12,4.21,11.94a6.47,6.47,0,0,1-3.59,4.54c-.88.42-2.65.38-.5,3.64s3.89,9.51,3.22,12.35-2.35,2.79-3.31,3.37-2.2,2.14-2.35,4.84.15,3.81-2.47,4.26-2.55,3.29-4.09,3.84-2.76,2.19-4.7,1.21-4.28-3.9-5.21-3-2.77,7.86-4,9.08.79,1.65-1.16,1.74a22.27,22.27,0,0,1-5.21-.77s4.88,7.35,9.4,9.34,3.07,8.55,6.37,10.41,4.56,2.74,4.19,6.16,5.4,10.37,5.4,12.72.06,4-2.84,4.16-3.62-.52-4.26,1.77-1.71,2.6-4.79,2.33-9-.43-9.37,3.58,5,7.8,5.16,9.32-.34,4.54-.16,6.22,2.36,4.77,1.26,6.11a7.05,7.05,0,0,1-4.47,2.81c-2.15.39-4.14-.4-3.34,2.54s2,3.57,1.57,6.43-.53,5.44,3.66,10.11,10,11.05,10.31,13.15-1.3,6.07-4,6.48,0,3.71.84,4.64,1.87,2.78,6.18,3a61.4,61.4,0,0,1,9.95,1.72c.45.07,7.11.09,7.79.21s7.88,2.58,9.17,2.79a6.82,6.82,0,0,0,4.77-.61,7.72,7.72,0,0,1,7.27-1c3.71,1.12,9.75-1.2,11.21-1.62s10.3-2.51,10.3-2.51.68-5.57,1.22-6.71,1.68-1.24,3.21-2.22,2.84-1.12.93-3-5.59-5.51-5.07-7.32.62-4.47-.38-4.91-4,.54-5.85-.11-2.19-4.11-.75-4,7.25.23,8.49-1.22,3.75-6.83,5.24-7.61,9.19-2.88,10.79-3.81,6.33-5.42,10.34-12.66,4.38-9.71,3.48-11.48.3-2.64,0-3.87-1.38-1.35-2-2.43a2.37,2.37,0,0,1,.09-2.8c.59-1,3.62-4.57,1.89-5.68s-5.39-4.1-3.93-6,6.83-2.19,6.83-2.19,7-2.45,8.94-6.56.73-6.66-1.34-8.76-5.71-12.07-5.51-16.09,2-10.37,1.54-13.79.29-13.53-1.6-18,.1-10.71,1-11.83.77-8.55.77-8.55,3.51-6,3.81-8.07a61.63,61.63,0,0,0-.11-8.44A17.23,17.23,0,0,1,383.48,465.65Z"/></g><g id="Sabaragamuwa"><path class="cls-1" d="M366.31,759.23a46,46,0,0,0-2.3-6.51c-1.47-3.27-4.5-4.2-6-4.84s-5.82-1.56-7.19-7.43-3.52-17.12-3.13-20.55-.78-2.83.79-4.89,7.62-13.21,8.5-16.24.4-4,1.18-6.85a18.77,18.77,0,0,1,2.15-5.28c1.37-2.74,4.7-6.26,1.67-5.77s-7.44,4.11-9.88,3.52-2.76-1.56-4.47-2-2.28-1.47-2.28-2.25a4.19,4.19,0,0,0-1.76-3c-1.18-.78-3.23-1.07-.79-2.73s6.17,0,7.73-1.08.78-3.72-.68-5.28-3.53-.2-4.31-2.35.2-2.54-1.37-2.64-2.68,1.46-2.51-.39a9.77,9.77,0,0,1,.75-2.84c.2-.88,1.69-2.25-.77-2.25s-12.4,3-16.58,4.21-5-.66-9.39-.4-2.22,3.13-8.08,2-5.87-2.48-9.79-2.87-3.91.39-7.17-.13-4.18-1.69-8-1.69-5.74-.14-7.3-2.09-4.44-3.26-2.35-5.09,6.39-2.35,4.43-7.43-13.3-14.61-14.08-18.53,1.56-4.82,0-8.21-2.87-4.18-.78-5,6.78-.52,7.3-2.87-.78-1.56-1.17-5.09.26-5.21.26-6.65-6-7-5.35-9.91,4-3.78,7-3.91,4.18,1.95,6,0,.52-2.87,2.48-3.66,4.44,1.18,5.22-2.08-3.78-9.52-4.7-13.05,1.83-4-1.82-6.78-4.57-2.74-6-7.43-6.13-5.74-8.22-8.22-3.52-4-5.35-6.52-6.39-8.48-12.26-6.79-2.48,7.83-3.65,10.7-8.09,5-13.83,6.52-8.22,4.18-12.91,6.52a48,48,0,0,0-6.85,4s-1.13,12.36-3.47,13.62-6.15,1.49-5.09,6.63.67,6.08,4.25,5.54,8.08-1.06,7.27,3.11-4.26,5-5.56,7-3.57,5.66-1.89,13.5,2.45,11.61,4.3,11.17,4.19-2.55,5.38.78,2.28,8.27.14,11-10.19,7.66-8.33,10.83,6.05,7.06,6.07,7.36a2.47,2.47,0,0,1-1.31,2c-1.17.78-3,.78-3.13,1.69s1.64,6.09,3.54,11.58,2,8.94,2.54,9.91,4.49,4.18,5.79,7.21,1.81,7.72,4.17,9.52,10.35,6.12,10.72,7,.57,2.82-1.27,3.14-2.62,1-1.93,2.58,17,26.47,17,26.47,1.22,2.66,2.1,3.08,9.11,6.27,11.86,6.51,9.86,1,11,1.7,1.05.22,1.37,2.12.95,4,3.48,2.7,8.09-7.14,10.26-7.59,13.06-1,14.11-.07.76,2,.22,3.38-2.25,5.59-.36,6.26,6-.49,7-.57,3.28-.2,3,1.3-.78,3.35.7,3.35,3.26-.76,3,.75-.58,4.21.46,4.59,12.95,1,15.35,3,4.5,6,8.18,5.65,11.07-2.59,13.11-1.45,11.8,7.76,15.29,7.8,3.87-1.36,3.2-2.87S366.31,759.23,366.31,759.23Z"/><path class="cls-2" d="M366.27,759.23a46,46,0,0,0-2.3-6.51c-1.46-3.27-4.5-4.2-6-4.84s-5.82-1.56-7.19-7.43-3.53-17.12-3.13-20.55-.79-2.83.78-4.89,7.62-13.21,8.5-16.24.4-4,1.18-6.85a19.1,19.1,0,0,1,2.16-5.28c1.36-2.74,4.69-6.26,1.66-5.77s-7.44,4.11-9.88,3.52-2.76-1.56-4.46-2-2.29-1.47-2.29-2.25a4.19,4.19,0,0,0-1.76-3c-1.18-.78-3.23-1.07-.79-2.73s6.17,0,7.73-1.08.79-3.72-.68-5.28-3.52-.2-4.31-2.35.2-2.54-1.37-2.64-2.68,1.46-2.51-.39a10.11,10.11,0,0,1,.75-2.84c.2-.88,1.69-2.25-.77-2.25s-12.4,3-16.57,4.21-5-.66-9.4-.4-2.21,3.13-8.08,2-5.87-2.48-9.79-2.87-3.91.39-7.17-.13-4.17-1.69-8-1.69-5.74-.14-7.3-2.09-4.44-3.26-2.35-5.09,6.39-2.35,4.44-7.43-13.31-14.61-14.09-18.53,1.56-4.82,0-8.21-2.87-4.18-.78-5,6.78-.52,7.3-2.87-.78-1.56-1.17-5.09.26-5.21.26-6.65-6-7-5.35-9.91,4-3.78,7-3.91,4.18,1.95,6,0,.53-2.87,2.48-3.66,4.44,1.18,5.22-2.08-3.78-9.52-4.7-13.05,1.83-4-1.82-6.78-4.57-2.74-6-7.43-6.13-5.74-8.22-8.22-3.52-4-5.35-6.52-6.39-8.48-12.26-6.79-2.48,7.83-3.65,10.7-8.09,5-13.83,6.52-8.21,4.18-12.91,6.52a48,48,0,0,0-6.85,4s-1.12,12.36-3.47,13.62-6.15,1.49-5.09,6.63.67,6.08,4.25,5.54,8.08-1.06,7.27,3.11-4.25,5-5.56,7-3.57,5.66-1.89,13.5,2.45,11.61,4.3,11.17,4.19-2.55,5.38.78,2.28,8.27.15,11-10.2,7.66-8.33,10.83,6,7.06,6.06,7.36a2.48,2.48,0,0,1-1.3,2c-1.18.78-3,.78-3.14,1.69s1.64,6.09,3.54,11.58,2.05,8.94,2.55,9.91,4.48,4.18,5.78,7.21,1.81,7.72,4.18,9.52,10.34,6.12,10.71,7,.57,2.82-1.26,3.14-2.63,1-1.94,2.58,17,26.47,17,26.47,1.22,2.66,2.1,3.08,9.1,6.27,11.85,6.51,9.86,1,11,1.7,1,.22,1.37,2.12,1,4,3.47,2.7,8.09-7.14,10.27-7.59,13.05-1,14.1-.07.76,2,.22,3.38-2.25,5.59-.35,6.26,6-.49,7-.57,3.28-.2,3,1.3-.77,3.35.7,3.35,3.27-.76,3,.75-.58,4.21.47,4.59,12.94,1,15.34,3,4.5,6,8.18,5.65,11.07-2.59,13.11-1.45,11.8,7.76,15.29,7.8,3.87-1.36,3.2-2.87S366.27,759.23,366.27,759.23Z"/></g><g id="Western"><path class="cls-1" d="M162.93,730.17A36.51,36.51,0,0,1,161,724.7c-1.12-3.92-1.81-3.28-2.35-6.9s-1.76-3.52,0-4.26,3.33,2.55,2.55-2.54-9.79-29.15-14.29-38-8.6-15.84-9.19-23.47-1.76-13.31-2.94-15.46-3.13-1.57-2.93-4.89,4.5-6.65,4.5-14.29.2-12.91-1.57-17-6.45-17.21-6.65-22.5a69.4,69.4,0,0,1,0-7.43s3.33,12.32,4.89,15.65,2.16,7.83,2.74,4.89.39-3.32,1.76-6.45-1-8.81-2.54-10.37a16.74,16.74,0,0,0-4.11-2.74s2.35-4.5,2.35-8.42a52.2,52.2,0,0,0-.39-6.65s8.22.2,11,1.18,5.48-2.94,8.61-3.14,4.5-1.76,7.83-4.1,6.65-3.92,8.61-2.55,7,7.05,12.32,4.11,12.33-9.24,15.26-4.62,4.11,5.8,6.66,8,3.13,3.13,4.5,3.13,1.17,1.17,1.17,1.17-1.08,7.78-2,10.47-1.18,3.77-3.77,4.4-2.89,1.81-2.74,5.38.59,5.48,2.1,5.77,8-2.28,8.94.53.52,4-1.7,6.06-6.45,4.66-5.77,12.29,2.15,15.46,4.8,15.66,2.93-2.94,5.38.78,1.4,11.38-2,13.73-7.83,4.69-5.87,9,7.3,5.34,5.34,7.69-2.86-.65-4,2.48,5.74,14.22,5.74,19.17,3.13,3.79,6.13,9.53.65,6,4.17,9.52,12.79,5.87,10.83,8.87-3.65,0-3.52,3,11.48,19.3,13.3,21.78,6,8.65,6,8.65-4.47-3-11.82,2.16-8.26,5.49-8.26,7.19,2.54,6.78,1.24,7.57-3.6-.73-6.08-2.7-5.09-5.57-7.81-4.41-5.67,4-8.84,4.78-10.9,0-12.72-1.17a10.19,10.19,0,0,1-3.82-4.46c-1-2-4.61-3.73-8.76-4.21s-6.24-.61-8.11-2.17-2.64-4.28-4.65-4.38a5.86,5.86,0,0,0-4.07.78c-1.41.81-2.58,1.57-2.58,1.57Z"/><path class="cls-2" d="M162.93,730.39a37.05,37.05,0,0,1-1.91-5.48c-1.12-3.91-1.81-3.28-2.35-6.9s-1.76-3.52,0-4.25,3.33,2.54,2.55-2.54-9.79-29.16-14.29-38-8.6-15.85-9.19-23.48-1.76-13.3-2.94-15.46-3.13-1.56-2.93-4.89,4.5-6.65,4.5-14.28.2-12.91-1.57-17-6.45-17.22-6.65-22.5a69.66,69.66,0,0,1,0-7.44s3.33,12.33,4.89,15.66,2.16,7.82,2.74,4.89.39-3.33,1.76-6.46-1-8.8-2.54-10.37a17.07,17.07,0,0,0-4.11-2.74s2.35-4.5,2.35-8.41a52.2,52.2,0,0,0-.39-6.65s8.22.19,11,1.17,5.48-2.93,8.61-3.13,4.5-1.76,7.83-4.11,6.65-3.91,8.61-2.54,7,7,12.32,4.11,12.33-9.24,15.26-4.62,4.11,5.79,6.66,7.94,3.13,3.13,4.5,3.13,1.17,1.18,1.17,1.18-1.08,7.77-2,10.46-1.18,3.77-3.77,4.41-2.89,1.81-2.74,5.38.59,5.48,2.1,5.77,8-2.28,8.94.52.52,4-1.7,6.07-6.45,4.66-5.77,12.29,2.15,15.46,4.8,15.65,2.93-2.93,5.38.78,1.4,11.38-2,13.73-7.83,4.7-5.87,9,7.3,5.35,5.34,7.7-2.86-.65-4,2.48,5.74,14.21,5.74,19.17,3.13,3.78,6.13,9.52.65,6,4.17,9.52,12.79,5.87,10.83,8.87-3.65,0-3.52,3,11.48,19.31,13.3,21.79,6,8.64,6,8.64-4.47-3-11.82,2.17-8.26,5.49-8.26,7.19,2.54,6.78,1.24,7.56-3.6-.72-6.08-2.7-5.09-5.56-7.81-4.4-5.67,4-8.84,4.77-10.9,0-12.72-1.17a10.08,10.08,0,0,1-3.82-4.46c-1-2-4.61-3.72-8.76-4.21s-6.24-.61-8.11-2.16-2.64-4.28-4.65-4.39-2.66,0-4.07.79-2.58,1.56-2.58,1.56Z"/></g><g id="Southern"><path class="cls-1" d="M163.76,732.33s5.28-3.72,6.65-2.35,5.09,5.87,8.61,6.06,11.55,1.37,12.91,4.7,2.55,4.3,5.87,5.09,10.57,1.17,12.53,0,6.26-5.68,9.39-3.92,8.41,7.63,11.15,6.46-2.35-7.39,0-9.27,11.74-8.93,16-8.53a25.73,25.73,0,0,1,6.26,2.93c2.94,2,6.07,4.74,12.53,5.6s9,.27,8.6,3,2.16,3.91,5.48,1.76,6.15-6.65,8.26-6.65,12.09-1.18,13.79-.26,1.17,1.95,0,4.95-1.44,6.26,3.91,5,6.52-.78,6.26,1-1.3,3,1.43,3,2.61-1.3,2.09,2.22,1.44,3.52,2.87,3.52,12,.72,14.86,3.75,2.88,4.89,8.16,4.4,8.32-2.73,11.45-1.37,9.29,7,14.77,7.73,4.21-2.25,2.64-5.08-4.27-8.12-3-8.51S380.61,753,384.65,751s6.26-1.95,4.18-5.08-3.26-4.83-.79-6.39,3,.39,5.09-2.48.52-5.48,2.35-5.61,12.78-1.57,17.35.65,5.47.91,5.74,3.39-.14,5.35,3.13,2.74,4.3-4.56,6.39-2.35,8.74,14,12.52,14.57,1.3-2.05,3.26-4.65,2.41-2.35,6.52-2.16,9.59-3.52,13.11-4.3,3.33.2,5.48-2.74,4.11-3.52,4.11-3.52,3.91,2.93,5.48,1.76,4.89-1.37,8-1,2.93-.21,4.69-4.21,2.55-6.16,1.37-9.09-2.21-2.55.56-4.31,7.27-7.82,11.18-9.19,7-.79,10.57-2.74S520,700,521.41,701s2,5.87,6.26,6.26,4.5,4.31,7.63,5.29a32.66,32.66,0,0,0,7.83,1s-2.35,6.85-5.09,7.44-5.67.59-6.06,2.93.78,3.13-2.35,4.5-5.48,1.57-7.43,5.48-4.7,3.91-8,5.87-2.15,5.67-6.65,6.26-9.39-1.95-10,2.15-2.93,6.66-7.24,9.4-3.13-.2-5.67,3.13-2.93,3.52-5.28,3.52-2-2-3.33,1.76-9.19,5.09-12.52,7.43-5.87,9.59-11.54,10-7,.39-11.35,2-12.91,5.87-11.94,3.52,2.55-2.15,1.37-3.72-1-4.11-3.32-.58-1.37,2.74-2.15,5-7.44,2.83-9.2,3.22-.78,3.92-3.72,5.09-9.58,1.56-13.69,1.37S385,800.8,382.5,802.76s-3.52,3.13-6.26,3.13-5.09,2-4.31,0a17.15,17.15,0,0,1,2.74-4.11s-4.89-2.54-6.06-.58,2.15,3.89,0,5.56-7.44.31-10.18,3-.19,3.53-5,3.53-6.17-4.11-8.71,0-3.91,6.45-7.44,7-4.3-2-4.89.78,0,5.48-3.13,6.26-2.54-3.13-4.5,0-2.15,3.92-8.41,3.92-12.72,2.93-16.44,4.89-2.73,1.56-8,0-5.28-2.55-12.91-2-10.37,2-13.5-1-2.54-6.85-6.46-6.06-8.8,2.74-16-.39-7.43-5.09-13.3-5.09-12.13-2-12.53-2.94.59-2.15.59-3.71-.78-2.74-2-2.16-1.56,3.14-3.32,2.16-10.37-6.66-14.87-12.33-6.26-4.69-9.39-9-3.33-6.65-6.46-11.74-6.26-7.43-8.22-13.69-1.95-12.33-2.74-15.07-.39-1.37-.78-4.69-3.91-7.15-4.69-9.4A57.68,57.68,0,0,1,163.76,732.33Z"/><path class="cls-2" d="M163.76,732.33s5.28-3.72,6.65-2.35,5.09,5.87,8.61,6.06,11.55,1.37,12.91,4.7,2.55,4.3,5.87,5.09,10.57,1.17,12.53,0,6.26-5.68,9.39-3.92,8.41,7.63,11.15,6.46-2.35-7.39,0-9.27,11.74-8.93,16-8.53a25.73,25.73,0,0,1,6.26,2.93c2.94,2,6.07,4.74,12.53,5.6s9,.27,8.6,3,2.16,3.91,5.48,1.76,6.15-6.65,8.26-6.65,12.09-1.18,13.79-.26,1.17,1.95,0,4.95-1.44,6.26,3.91,5,6.52-.78,6.26,1-1.3,3,1.43,3,2.61-1.3,2.09,2.22,1.44,3.52,2.87,3.52,12,.72,14.86,3.75,2.88,4.89,8.16,4.4,8.32-2.73,11.45-1.37,9.29,7,14.77,7.73,4.21-2.25,2.64-5.08-4.27-8.12-3-8.51S380.61,753,384.65,751s6.26-1.95,4.18-5.08-3.26-4.83-.79-6.39,3,.39,5.09-2.48.52-5.48,2.35-5.61,12.78-1.57,17.35.65,5.47.91,5.74,3.39-.14,5.35,3.13,2.74,4.3-4.56,6.39-2.35,8.74,14,12.52,14.57,1.3-2.05,3.26-4.65,2.41-2.35,6.52-2.16,9.59-3.52,13.11-4.3,3.33.2,5.48-2.74,4.11-3.52,4.11-3.52,3.91,2.93,5.48,1.76,4.89-1.37,8-1,2.93-.21,4.69-4.21,2.55-6.16,1.37-9.09-2.21-2.55.56-4.31,7.27-7.82,11.18-9.19,7-.79,10.57-2.74S520,700,521.41,701s2,5.87,6.26,6.26,4.5,4.31,7.63,5.29a32.66,32.66,0,0,0,7.83,1s-2.35,6.85-5.09,7.44-5.67.59-6.06,2.93.78,3.13-2.35,4.5-5.48,1.57-7.43,5.48-4.7,3.91-8,5.87-2.15,5.67-6.65,6.26-9.39-1.95-10,2.15-2.93,6.66-7.24,9.4-3.13-.2-5.67,3.13-2.93,3.52-5.28,3.52-2-2-3.33,1.76-9.19,5.09-12.52,7.43-5.87,9.59-11.54,10-7,.39-11.35,2-12.91,5.87-11.94,3.52,2.55-2.15,1.37-3.72-1-4.11-3.32-.58-1.37,2.74-2.15,5-7.44,2.83-9.2,3.22-.78,3.92-3.72,5.09-9.58,1.56-13.69,1.37S385,800.8,382.5,802.76s-3.52,3.13-6.26,3.13-5.09,2-4.31,0a17.15,17.15,0,0,1,2.74-4.11s-4.89-2.54-6.06-.58,2.15,3.89,0,5.56-7.44.31-10.18,3-.19,3.53-5,3.53-6.17-4.11-8.71,0-3.91,6.45-7.44,7-4.3-2-4.89.78,0,5.48-3.13,6.26-2.54-3.13-4.5,0-2.15,3.92-8.41,3.92-12.72,2.93-16.44,4.89-2.73,1.56-8,0-5.28-2.55-12.91-2-10.37,2-13.5-1-2.54-6.85-6.46-6.06-8.8,2.74-16-.39-7.43-5.09-13.3-5.09-12.13-2-12.53-2.94.59-2.15.59-3.71-.78-2.74-2-2.16-1.56,3.14-3.32,2.16-10.37-6.66-14.87-12.33-6.26-4.69-9.39-9-3.33-6.65-6.46-11.74-6.26-7.43-8.22-13.69-1.95-12.33-2.74-15.07-.39-1.37-.78-4.69-3.91-7.15-4.69-9.4A57.68,57.68,0,0,1,163.76,732.33Z"/></g><g id="Sri_Lanka" data-name="Sri Lanka"><path class="cls-3" d="M160.44,722.93a30.38,30.38,0,0,1-1.64-4.36c-.2-1.22-2.15-4.25-.52-4.63s2.89.72,3.14-.82-6-21.23-10.79-31.7S139.86,660,138.91,655.85s-2.12-18-3.66-20.53-3.06-2.6-3.37-4.94,3.9-5.72,4.49-15.23-.15-12.82-.86-14.92-6.58-17-7-22-.55-6.3,1-3.09,5.09,13.43,5.77,12.91,3-5.28,2.66-8-1.35-7.2-3.64-8.73-3-.81-3-1.91,2.16-4.46,1.91-9.33a95.27,95.27,0,0,0-4-23.56c-3.09-9.89-4.13-23.29-4.83-26.32s-3.67-3.91-4.64-7.83-2.94-8.27-1.35-8.51,4,.19,4.53,2.38,2.57,10,3.74,11.77,3.86,1.76,3.37-.85S120.78,492,119.77,489.3s1.13-3.88,3-4.13,1.59-2.1.88-3.55A47.64,47.64,0,0,1,121.07,467c.14-5.29.43-10.35.19-12.32s-8.23-17.35-8.69-20.88-4.27-17.95-5.89-20.55a21,21,0,0,1-3-7.83c-.17-1.93.25-13.61-.44-16.49s-3.94-6.53-3.88-8.48,2.93-5.94,3.13-8.46-2.54-9-2.25-10.65,2.76-2.33,4.41-4.64,4.94-10.11,6.22-12.08,2.44-7.84,3.89-9.19,4.7-.62,2.29,3.44-4.85,7.51-4.58,11.42-2.17,1.38-3,3.57-1.47,5.34.1,3.78,6-6.56,5.72-3.45.2,4.78-1.56,6.26-3.82,2.42-2.84,5.11a7.42,7.42,0,0,1,.16,5.58,48.44,48.44,0,0,1-2.57,5.46c-.62,1-1.2,1.9-.74,3.18a14.79,14.79,0,0,1,.32,5.91c-.34,1.26-.55,3,1.11,4.2s4.48,2.68,2.67,4.47-1.41,2.1-1.58,4.74.07,7.82,1.81,8.61,7.38-1.18,9.49.22,2.69,3.78,2.76,6.62-.47,16.89-1.76,20.29-2.48,9.84-1,13.33,2.82,6.4,4.21,6,2.43-1.93,1.35-8.64-3.19-21.27-1.35-28.89,4.19-10.47,3.13-13.4-7-9.77-7.66-10.65-3.17-3.59-1.9-3.62a4.36,4.36,0,0,0,4.32-2.14c1.55-2.27,1.4-4.73,3.57-6.31s4.09-2.8,3.83-3.62-6.24-5.51-6.22-6.75,3.14-1.25,2.63-2.88-5.06-5.28-5.31-7.57.41-2,1.19-4,1.76-6.1,2.72-7.72a67.47,67.47,0,0,1,6.63-7.56c.7-.58,2-1.81.77-1.8s-1.95,1.28-2.44,0,2.05-9.23,1.31-13.15-2.1-4.7-1.78-7.14,6.14-4.53,6.36-8.48-2-10,.11-14.63,7.12-4.59,8.34-4.84l3.35-.73s-1.21-7.23,1.82-9.67a10.63,10.63,0,0,0,3.92-8.71c0-2.93-.58-4.55.78-5.38s2-1.18,1.38-2.22-2.08.07-2-2.08,2.06-1.18,1.45-5.68-4.86-8.92-5.8-11.83-1.63-2.91-.29-4.21,2.76-2.3,2.35-2.77-2.44-1.08-3.72-1.63-3-.59-2.06-1.37,1.73-.36,2.43-1.6-.32-1.59-1.57-2.49-.06-7.75,1.1-5.29,1.49,5.34,2.45,4.78,2.66-1.52,1.56-4.27-2.75-4.61-1.95-5.22,2.47-.9,3.13-3.88,1.1-4.88.58-5.51-1.18-1.51-1.18-1.51-1.85,1-2.08,2-.28,4.93-1.3,5.7-2,.22-3-.9.18-1,1-2.24,1.28-1.72.22-3.24-1.45-.63-3.51-3.11-5.77-2.68-8.46-5.19a18.81,18.81,0,0,1-4.84-7c-1.27-2.74-2.45-2.55-4.21-3s-2.12-2.2-3.55-3.15a25.66,25.66,0,0,0-5.36-2.33c-.76-.18-8.93-4.06-10.93-4.07s-4.43,1.94-6.08,1.14-3.41-3-3-6.47,4.21-3.16,5.88-2.75,2.84,2.15,5.18,1.33,2.66-3.52,5.25-1.58,5,3.56,7.26,3.92,3.39-1.35,5.09-.83,8.24,2.47,9.81,5.7,4.94,4.49,7.27,5.57,5.65,3,5.9,4.46,4.13,3-.25,2.34-5.47.3-7.33-1.87-5.39-6.09-5.39-6.09,3,8.08,5.42,9.41,5.21,1,5.89,2.43,2.13,2.23-.13,2.92-3.07-.77-3.16.59-.46,3.17,2.33,5l2.79,1.87s3.94-1.83,5-1.55,2.29-1.61,2.74-2.48,3.92.4,5.35.37,2.38-.32,2.48-1.61-2.46-7.29,2.82-8.55,7.61-2,9.24-4.23,4.13-5.42,4.54-6.49.64-5.51,1.49-8.37.57-6.22,1.22-8.32.09-.6,1.23-2.87,3.9-6.46,5.57-9.15,1.08-6.93,1.27-9.63.37-3.19-.19-4.8-2.9-2.64-1.63-4.14,3.78-1.85,3.54-3.26-4.47-4.29-5-5-.19-2.59-2-2.35-4.91,2.09-5.86,1.24-2.41-9.09-2.12-11.34,1-4.63,2-5.07,2.87-.4,5.19-2.32,3.8-2.46,5.47-2.15,4,1.78,5.43.37,3.05-4,5.06-4.43,2.25.81,3.07-.43.15-4,1.41-5.79-.28-5.53-.94-6.5S205.1,87.19,203,86a41.14,41.14,0,0,0-6.69-3.31c-1.06-.22-1,1.27-2.89-1.17s-3.23-4.68-5.72-5.62-3.4-.9-4.87-1.47-3.65-1.4-4.31-2.59,2.7-3.15,3.69-2.44,1.41,3.64,3.57,4A4.89,4.89,0,0,0,190,72.29c1-.64.21-.21,2.12,1.43s5.09,3.15,8,4.56,3.65,3.14,4.77,4.43,0,1.71,1.33,1.32,3.28-3,5.74-2,1.81,2.07,4.22,2.78a11.94,11.94,0,0,1,5.76,3.1,22.32,22.32,0,0,0,2.05,2,1.94,1.94,0,0,1,1.49,1.43,2.12,2.12,0,0,0,2.06,1.84c1.14.13,2.27-.09,2,1s-1.15,3.33-2.6,3.29-2.94.4-2.42.94,6.78,3.92,8.54,4.08,6.79-4.77,7.63-4a14,14,0,0,0,4.58,2.25c.63,0,3.37-2.66,4.58-3a5,5,0,0,0,2.58-3.25c.21-1.08.36-3.14.88-3.2a14.41,14.41,0,0,0,4.11-.61c1.05-.53,3-1.91,3.62-.82s1.35,3.6,2.74,3.13,5.27-3.32,8.44-1.46a20.47,20.47,0,0,1,5.63,4.35,3.24,3.24,0,0,0,3.08,1.54,5.46,5.46,0,0,1,4.24,1.31c1,1,2.29,4.11,4.3,4.17s2.86-.61,5.41-.89a35.84,35.84,0,0,1,7.9.09c1.3.28,1.37.54,1.37.54s-.09-3.9-2.43-4.82-4.61-1-6.5-1.61-5.78-1.49-5.94-2.81.7-1.81-1.2-2.37-6.36-1.43-8.88-2.87-4-2.32-5.44-2.55-2.61-.06-3.86-1.35-2.83-2.39-3.93-1.9a2,2,0,0,0-1.13,2.59c.37,1,1.74,3.15.5,3s-2.45-1.79-3.5-2.15a7,7,0,0,0-4.45-.25,19.41,19.41,0,0,0-2.84,1.77,7.73,7.73,0,0,1-3-.43c-.55-.21-13-10.94-16.8-13S222,68.18,220,66.94s-5-2.48-6.91-4.17a17.76,17.76,0,0,0-5-3.19c-.63-.12.05,1.21-.32,3.26s-3.58,3-2.62,4.17,4.67.82,4.93,1.73-.17,3.55-2,3.58-2.7.22-2.83-1.36a3.76,3.76,0,0,0-2.48-3c-1.14-.5-7.16-4.58-8.68-5.19s-4.82-1.15-6-2.55-2.55-2.47-1.86-4.05,2.21-2.75,3-4,.43-3.17,2.09-2.21,3.21,1,2.41,2.87-1.39,3.62-.32,3.24,4.11-2.27,4.12-3.1-.73-1.58-.28-2.79,4.06-3,5-3.33a19.1,19.1,0,0,1,5.34-.79c1.77.11,3.48-.21,2.59-1.47s-1.77-3.94-3.11-3.11-3.2,1.93-3.82,1.74a2.31,2.31,0,0,0-2.37.51c-1,.79-1.45,2.36-2.95,3.48s-.35,2.68-2.21,2.78-3.13-.78-4.31-1.17a5.18,5.18,0,0,0-3.44-.16c-1.74.35-5.63,3.58-4.91,6.91s1.41,5.57,4.54,6.84a28.24,28.24,0,0,1,7.51,4.8c.8.88,1.22,2.59.57,3.3s-5.35-1.39-8.52-3.52-4.68-3.75-6.57-4.14-2.69-.65-4.13-.37-1.78.53-2.57,0a37.76,37.76,0,0,1-5-5.23c-.84-1.3-1.9-2.39-2.39-3.3s-1.77-1-2.41-1.59-1.68-2.23-2.32-1.94a34.9,34.9,0,0,1-3.13,1.82c-1.27.53-4.17.86-4.54-1.77s0-4-.43-4.76-2-3.31-2.8-4.56-3-4.92-3-4.92l-1.81.47s-.54,2.26-.88,4,.55,4.4-.31,5.56S142,48,142.24,48.82s2.35,1.49,2.83,2.94,2.16,5.66,2.16,6,0-2.28.51-2.62,4.12-1.61,6.35,0,2.62,2.67,2.34,4-.85,3.57,1.89,3.74,4.25-.33,4.89,1-.68,1.36.65,1.69,4.48-1.52,5.16-.75a4.58,4.58,0,0,1,.84,3.65c-.22,1.56-.31,3.13-1.32,3.49s-1.24,1.16-3.51.63-3.88,0-3.52-1.1a19.5,19.5,0,0,1,.88-2.15,14.21,14.21,0,0,1-3.77-1.24c-1.69-.89-5.36-2.68-5.91-2.9s-2.75-.79-3.13.06-1.36,4.09-2.45,3.8a7.59,7.59,0,0,1-3.72-2.53,29.31,29.31,0,0,0-2.5-3.85c-.6-.58-1.25-1-1.21-1.92a23.28,23.28,0,0,1,.68-3.33s-1.17-1.17-1.47-1.17-1.9,1.11-2.74,1-1.33-1.33-.47-2.87-.7-4.19-1.78-4.28-1.87-1.7-.88-1.66,2.74-.88,3.33-.88a10.21,10.21,0,0,1,2,.45s-2.87-2.89-1.11-5.24,0-4.11-.39-5.09.36-1.52,3.41-1.2,10.21-1.81,12.32-3,5.52-4.65,10.32-5.7,7.71-2.34,10.1-2.9,10.42,1.47,12.19,1.95,2.72.31,5.79.29,5.17-.71,5.3.21a41.88,41.88,0,0,0,.88,4.89c.3.82-.15,2.37,1,3.67s1,1.86,2,2.29.89-.15,2.37-1.32,2.1-1.16,3.58-.12,2,2.83,2.31,3a7.29,7.29,0,0,0,3.6-.83l2.24-1.3.89-.52a35.86,35.86,0,0,1,6.55,6.27c2.85,3.62,14.74,16.53,19,19.48s13.58,9.3,13.91,9.51,6.83,3.49,7.57,3.8,3.83,2.49,4.27,1.32-9.77-8.61-11.7-9.93-4.29-2.27-6-3.3-2.32-1.86-4.85-4.6a133.86,133.86,0,0,0-10.1-8.94c-1.07-.88-7.79-6.77-9-7.74s-2-2.66-3.29-5.4a17.35,17.35,0,0,0-2.54-4.09,8.46,8.46,0,0,0-2.09,1.76c-.35.66-3.94.24-4.9-.53s-1.79-1.4-2.38-1.23-3.38,1.35-3.38,1.35a2.49,2.49,0,0,1-1.31-1.17,3.74,3.74,0,0,0-2-1.89c-.75-.19-2.44.3-3.4-.93s-1.87-5-.54-6,4.37-2,6.2-1.23,14.21,1.41,15.65,1.48a7.94,7.94,0,0,1,4.81,2.68c1.08,1.36,12.32,21.06,18.93,26.77S270,73.93,277.45,78.79s20.47,15.43,21.38,15.86,6.9,3.34,9.26,5.92,4.89,3.39,5.54,5.57,1.17,3.16-.46,2.38-4.82-3.39-5-2.22.16,3.77,3.44,4.79,1.59,0,3.84,2.39,2.26,3.88,3.84,5,3,2.81,2.77.82a10.72,10.72,0,0,0-2.08-5.84c-1.57-2.21-3.08-3.39-2.44-3.71s9,7.69,10.16,9.35,5,5.15,3.63,5.3-3.89-3.72-5-2.72,1.67,4.29,2.09,4.57,6.66.1,6.42,2-2.13,1.62-3.13,1.65-2.53,2-3.1,4.33-1.67,3.48-.62,4.35,3.34,1.35,4.49,1.77a16.71,16.71,0,0,1,4.84,2.6c1.28,1.19,2.93,3.6,4.32,4s2.23-.71,1.86-2.15-1.33-6.74-2.14-7.5-3.23-2.64-3.68-3.68,1.09-2.48,3.09-.92.23.52,2.09,3.33,8.63,11,9.95,12.53,2.76,2.61,2.72,3.89-1,5.56-.21,7.55,2.7,4.1,2.7,5.75.66,2.63-.26,2.37-5.66-5.12-6.9-4.27-1.62,1-1.83,2.74-.66,4.46-.66,5.11,2.27-1.44,4-2,1.6-1.85,2.13-.5-.09,3,.17,4,1.16,2.61,2,2.75,2.16-.08,2.16-1.32-1.27-3.47.2-3.52,2.87,3.58,2.9,4.4.53,3.61,1.16,4,2.68,1.85,3.24,3.13a10.2,10.2,0,0,1,.58,3.16c.2,1.15,6.31,5.71,6.32,6.12s-5.73-3.13-7.32-3.83-4.64.21-6.19,1.94-.1,4.13,1.17,5.21a5.17,5.17,0,0,0,2.64,1.37c.25,0,1.6-2.17,3.11-1.61s2.86,3.62,2.74,4.73a10.64,10.64,0,0,1-2.26,4c-.37.25,0,5.59.78,7s2,2.51,2.89,1.9,1.13-2.53,2.44-2.68,3.72-.55,4.21-2-1-4.14-1-5.09,2-1.33,3.53-.8,2.88,1,3.18,2.89.39,4,1.71,4.3a4.37,4.37,0,0,1,2.79,2.37c.47,1,1.57,1.94,0,1.89s-5.16-.87-5.14-.54,5.61.66,6.85,2.26,4.05,5.75,5.33,6.91a31.59,31.59,0,0,1,3.91,3.9c.37.72,2,4.42,2.33,4.51s-.63-3.8.34-4.2,5.6,2.27,6.88,5.47,2.13,7.55,2.91,8.59a21.64,21.64,0,0,0,2.46,2.61c.25.19,1.19.76.34,1.11s-2.16-.8-2.74.25-1.32,1.81-.52,2.73,2.33,1.86,2.84,1.6a7.07,7.07,0,0,0,2.3-2.15c.42-.82,2.45-.28,4.36,2.21s4,4.26,2.3,4.1-4.26-1.58-5.14-1.58-2.28,0-1.7,1.39,3.41,2.67,4.5,3.12,2,1.31,2,4.31-.13,6.06.65,7.63,2.78,3.81,3.59,3,2.48-1,1.5-3.28-3.26-8.61-2.67-9.13,2.19,1.54,4.29,4.62,2.5,3.84,3.57,4.47,1.8.34,2.19,2.47-1.07,7.18-.51,9.73a24.38,24.38,0,0,0,3.44,8.31c1.66,2.35,1.64,3.92.33,4.56s-2.21-.17-3.66-2.07-3.35-4.68-4.49-3.49-1.41,2.12-1.19,3a39.6,39.6,0,0,0,1.34,5.8c.8,2.15,1.79,3.35,1,4.13s-4.56,1.68-4.82,1.34,0-3.09-2.2-4.61-3.05-2.25-3.05-2.25-1.89-.74-2.5-.32A56.35,56.35,0,0,0,413,298.6c-1,1.14-2.27,3.13-1,4.36s3,1.78,3.45.91a27.32,27.32,0,0,1,4.85-5.21c1-.53,2.1-.59,3.64,1.19s2.15,2.28,2.93,4.6,3,2.18,4.71,3.81,1.84,3.38,3.91,3.28,6.11-1.14,7.6-1,1.74-.84,3.29,1.32,3.6,5.74,4.37,5,5.9-8,3.7-7.65-4.73,4-5.65,1.67-2-5.4-1.65-7.37,3.45-5.64,4.73-6.44,2.08-1.19,3.12.23,2.31,4.87,2.8,4.88,2.2-1.74,2.8-1.4,2.44.89,2.26,2.25-1.65.51-1.51,2.59,3,6.59,4.14,9.05,1.16,7.18,1.76,10,4.8,8.49,3.43,8.19-3.14-3.51-4.6-5.47-2.4-4.19-3.59-4.34-3.06-.08-2.81,1.3,2.47,2.56,2.78,4-1.2,2.45-.49,3.94,1.73,1.92,2.81,3.36,1,2.51,2.68,2.68,3.43-1.7,3.93.36,4.39,22.39,6.54,28.22,4.81,13.27,4.89,15-1.48,4.22-2.36,3-3.6-9.66-4.69-11.77-1.49-5.1-3-5.56-3.91-1.51-4.09-.65.88,3.11,1.91,4.89.39,3.31-1.62,3.4-3.78-.31-4.28.07-2.15,2.64,2.83,3.56,7.16-1.31,8.11,1,.29,5,1.23,6,.82.1,2.39.93.59,6.09,2,6.5,1.47-4.89,1.73-6.55-.74-13.11.37-11.45,4.44,9.37,4.87,14.57,0,8.74,1.86,10.89,4.4,3,5.55,4.68.9,2,2.54,2.63a4.92,4.92,0,0,0,4-.3c.68-.44,3.13-.92,3.73,0s-2.43,3.4-2.83,4.64.84,4-.68,5.34-4.14,2.79-6,4.62-2.71,4.3-.89,5.76,3.37,1.17,3.16,3.33,1.8,2.1,2.6,4.18,1.39,4.53.21,4.77-3.9-1.58-4,.25,3.5,3.14,5,2.87,5.55-1,3.89-3.77-6.35-6.8-6.65-8.44-2.22-4.24-1.74-6.61-1.35-3.14,2-4,5.14-1.47,5.92-2.44,1.1-1.93,2.72.71,4.26,2,2.76,3.69-3.28,4.72-2.71,7.93a12.78,12.78,0,0,0,4.49,8c2.32,1.74,3.69,2.3,5,1.71s2.44-1.07,2.64.44,1.64,9.08,5.91,10.77,6.48,1.19,7.58,2.13a3,3,0,0,1,1.37,2.44c.26,1.37-.16,3,.93,3.64a3.36,3.36,0,0,1,1.75,3.59c-.37,1.65-1,4.46-2.17,2.62s-.63-4.13-1.73-4-2.14,2.42-3.14,2.54-1.89.24-1.71-1.59.4-3.27-.58-4-2.3-2.58-4.77-3.64-5.24-2.72-6.91-2.53-5,.44-5.54,1.81-1.54,4.8-2.4,5.91-1.53,1.9-1.46,2.45,2.61-1.37,4.57-1.31,2.94,2.17,4.66,2.62,2.49-.92,2.34-2.16a12.64,12.64,0,0,1-.13-3.46c.19-.26,2.66,2.86,4.76,2.9s3.55-1.46,3.19.16-3,4.37-2,5,2.73-2,3.84-1,1.42,4.83,3.69,6.3,4.72,2.63,4.62,4-2,2.23-1.54,3.84,1.73,2.26,2.52,3,.25,2.37.93,1.9,0-5.46,2.49-5.76,3.18,2,4.31,3.28a27.79,27.79,0,0,0,3.68,3c.66.54,1.14,1.14.53,1.77s-2.62-.19-2,1.08,3,2.23,4.25,3.54,1.58,2,.69,2.44-3.24-.51-2.65,1,3,3.09,1.36,3.66-3-.55-3.74-.31-1.2.17-1.1,1-.52,3.84,1.9,3.52,3.46-2.23,5-1.05a2.15,2.15,0,0,1-.61,3.89c-1.85.49-4.8-.14-5.19.53s3.2.73,4.11,3.67.18,5,.12,6.46.84.77,1.45,0,1.73-2.65,2.41-.46.26,4.61,1.17,6.45a23,23,0,0,1,1.57,4.28c.31,1.09,1.79-.08,2.69-1.38s1.35-4.6,3-4.65,3,1.17,3.23,4.8a16.09,16.09,0,0,0,3.4,9.59c2.45,3.34,2.64,3.6,3.21,6.16s2.11,4.34,1.59,5.78-2.51,1.41-1.87,2.91,1.34,1,1.89,2.86.41,8.66-.19,9.28-2,1.06-2.19,2,.48,6.3.09,8.16-.66,2.93-1.39,3.19-5.8,2.28-6.53,4.06.92,4.06,1.3,5.27-.11,3,1.47,2.06,4.58-9.88,4.95-9a76.73,76.73,0,0,1,1.58,10.89c0,2-.19,5.78-2.24,6.28s-1.71-1.27-3.5-.46-1.7,1.71-.92,3.52,1.28,1.1,1.58,3.08-.21,3.4.73,3.81,5.78-1.06,6.82,1.19,1,5.7-.17,6.33-3.52-.8-3.79.16,1.25,3.63.14,3.8-2.78-2.73-3.4-1.18-.84,4.27-.54,4.48,6.78-3,6.27-1.07-3.36,6.28-3.46,6.95-.57,6.8-1.14,7.66-1.4-.06-2.15,2.11.68,5.4.38,7-.73,3.47-1.56,2.84-4-2.48-3.36-1.24,4.24,2.8,4.83,4.07-5.54,3.73-5,7.34.87,5.31.83,5.68-1.71-.19-1.29.61,1.44,1.83,1.05,2.46-3.55,3.79-3.88,4.77.08,2.58-.33,3.7-.59,1.29-1.17,1.4-1-.51-1.51,1.4-.82,3-1.91,3.09-2.33-.76-2.93.1.24,3.15,1.22,4.5,1.94.76,1.82,3.89-2.81,4.48-3.25,5.72.9,4.74-1.41,5.18a5.77,5.77,0,0,1-4-.61,4.59,4.59,0,0,1,1,3.76c-.54,2-.47,3.07-1.92,3.46s-3.05,1.46-3.05,2,1.12,3,.36,5-3.38,7.17-4.29,8.12a6.92,6.92,0,0,1-4.63,2c-1.72-.08-3.15.53-3.56,3.15s-.67,3.2-2.82,4-4.24.85-6,3.83a20,20,0,0,1-4.54,5.19c-1.39,1.32-4.36,1.29-5.57,3.11s-1.93,4.27-3.67,4.76-4.14.18-7.1.31-4.22.36-4.51,1.85-1.86,6-4.6,7.93-3.92,3.8-5.29,3.9-2-1.17-2.54,0a13.88,13.88,0,0,1-2.84,3.82,8.46,8.46,0,0,1-2.44.87s-1.64-1-2.42-.46-1.19,3.75-4.85,5.42-8.16,2.78-10.06,5-5,6.91-7.88,8.4-7.81.51-12.07,2.07S432.12,788.8,431.4,789s-2.28,1.3-2.19,0,1.82-2.08,1.23-3.12-.93-2.92-1.62-3-2.5,2-3.08,3.14-.54,3.43-1.65,4.16a32,32,0,0,1-7.12,2.26,10.58,10.58,0,0,0-3.07.88c-.19.18-.43,3.94-2.25,4.48a95.72,95.72,0,0,1-13.11,1.39,39.15,39.15,0,0,0-9.55,1.08,41.18,41.18,0,0,0-8.68,4.13,12.33,12.33,0,0,1-4.56,1.44c-1.51.27-4.38,1.11-3.82,0s2.29-3.57,2.29-3.57-2-2.08-3.56-1.84a4,4,0,0,0-2.05.72s1.06,3.48.74,4.31-4.19,1.76-6.84,2.53-4.17,1.67-4.69,2.46-2,2.74-2.79,2.78a13.55,13.55,0,0,1-4.53-.5,14.16,14.16,0,0,0-4.22-1.09c-1,0-2.81,4.1-4.08,5.52s-1.09,2.72-3.38,2.75-4.38,0-5.07,0-.8,4.41-2.22,5.79-2.67,2.12-3.51,1.73-1.79-1.67-2.28-1.21-1.88,3.8-5,4.78-7.55.26-10.3,1.05-7.58,1.88-9.73,3-3.55,2.75-5.91,2-7.36-3.54-13.56-3-9.16,1.78-11.85.94a13.08,13.08,0,0,1-5.46-3.72c-1.37-1.29-1.05-4.58-3.63-4.21s-9.49,2.26-13.4,1a49.08,49.08,0,0,1-8.83-3.75c-2.1-1.18-2.11-2.3-4.66-2.22a43.58,43.58,0,0,1-9.26-.9c-2.79-.6-5.8-.86-6.44-1.94s.55-4-.06-5.13-1.56-1.44-1.86-1.24-.62,1.67-2.54,1.57-7.33-4.5-11.69-7.57-4.77-5.63-8.47-8.67-5-4.27-6.16-6.41-4.71-9.42-6.75-12.19-5.69-7.64-6.65-11.33-3.11-18.7-4.39-22.49-4.22-8.42-5-11.53S160.44,722.93,160.44,722.93Z"/><path class="cls-2" d="M160.44,722.93a30.38,30.38,0,0,1-1.64-4.36c-.2-1.22-2.15-4.25-.52-4.63s2.89.72,3.14-.82-6-21.23-10.79-31.7S139.86,660,138.91,655.85s-2.12-18-3.66-20.53-3.06-2.6-3.37-4.94,3.9-5.72,4.49-15.23-.15-12.82-.86-14.92-6.58-17-7-22-.55-6.3,1-3.09,5.09,13.43,5.77,12.91,3-5.28,2.66-8-1.35-7.2-3.64-8.73-3-.81-3-1.91,2.16-4.46,1.91-9.33a95.27,95.27,0,0,0-4-23.56c-3.09-9.89-4.13-23.29-4.83-26.32s-3.67-3.91-4.64-7.83-2.94-8.27-1.35-8.51,4,.19,4.53,2.38,2.57,10,3.74,11.77,3.86,1.76,3.37-.85S120.78,492,119.77,489.3s1.13-3.88,3-4.13,1.59-2.1.88-3.55A47.64,47.64,0,0,1,121.07,467c.14-5.29.43-10.35.19-12.32s-8.23-17.35-8.69-20.88-4.27-17.95-5.89-20.55a21,21,0,0,1-3-7.83c-.17-1.93.25-13.61-.44-16.49s-3.94-6.53-3.88-8.48,2.93-5.94,3.13-8.46-2.54-9-2.25-10.65,2.76-2.33,4.41-4.64,4.94-10.11,6.22-12.08,2.44-7.84,3.89-9.19,4.7-.62,2.29,3.44-4.85,7.51-4.58,11.42-2.17,1.38-3,3.57-1.47,5.34.1,3.78,6-6.56,5.72-3.45.2,4.78-1.56,6.26-3.82,2.42-2.84,5.11a7.42,7.42,0,0,1,.16,5.58,48.44,48.44,0,0,1-2.57,5.46c-.62,1-1.2,1.9-.74,3.18a14.79,14.79,0,0,1,.32,5.91c-.34,1.26-.55,3,1.11,4.2s4.48,2.68,2.67,4.47-1.41,2.1-1.58,4.74.07,7.82,1.81,8.61,7.38-1.18,9.49.22,2.69,3.78,2.76,6.62-.47,16.89-1.76,20.29-2.48,9.84-1,13.33,2.82,6.4,4.21,6,2.43-1.93,1.35-8.64-3.19-21.27-1.35-28.89,4.19-10.47,3.13-13.4-7-9.77-7.66-10.65-3.17-3.59-1.9-3.62a4.36,4.36,0,0,0,4.32-2.14c1.55-2.27,1.4-4.73,3.57-6.31s4.09-2.8,3.83-3.62-6.24-5.51-6.22-6.75,3.14-1.25,2.63-2.88-5.06-5.28-5.31-7.57.41-2,1.19-4,1.76-6.1,2.72-7.72a67.47,67.47,0,0,1,6.63-7.56c.7-.58,2-1.81.77-1.8s-1.95,1.28-2.44,0,2.05-9.23,1.31-13.15-2.1-4.7-1.78-7.14,6.14-4.53,6.36-8.48-2-10,.11-14.63,7.12-4.59,8.34-4.84l3.35-.73s-1.21-7.23,1.82-9.67a10.63,10.63,0,0,0,3.92-8.71c0-2.93-.58-4.55.78-5.38s2-1.18,1.38-2.22-2.08.07-2-2.08,2.06-1.18,1.45-5.68-4.86-8.92-5.8-11.83-1.63-2.91-.29-4.21,2.76-2.3,2.35-2.77-2.44-1.08-3.72-1.63-3-.59-2.06-1.37,1.73-.36,2.43-1.6-.32-1.59-1.57-2.49-.06-7.75,1.1-5.29,1.49,5.34,2.45,4.78,2.66-1.52,1.56-4.27-2.75-4.61-1.95-5.22,2.47-.9,3.13-3.88,1.1-4.88.58-5.51-1.18-1.51-1.18-1.51-1.85,1-2.08,2-.28,4.93-1.3,5.7-2,.22-3-.9.18-1,1-2.24,1.28-1.72.22-3.24-1.45-.63-3.51-3.11-5.77-2.68-8.46-5.19a18.81,18.81,0,0,1-4.84-7c-1.27-2.74-2.45-2.55-4.21-3s-2.12-2.2-3.55-3.15a25.66,25.66,0,0,0-5.36-2.33c-.76-.18-8.93-4.06-10.93-4.07s-4.43,1.94-6.08,1.14-3.41-3-3-6.47,4.21-3.16,5.88-2.75,2.84,2.15,5.18,1.33,2.66-3.52,5.25-1.58,5,3.56,7.26,3.92,3.39-1.35,5.09-.83,8.24,2.47,9.81,5.7,4.94,4.49,7.27,5.57,5.65,3,5.9,4.46,4.13,3-.25,2.34-5.47.3-7.33-1.87-5.39-6.09-5.39-6.09,3,8.08,5.42,9.41,5.21,1,5.89,2.43,2.13,2.23-.13,2.92-3.07-.77-3.16.59-.46,3.17,2.33,5l2.79,1.87s3.94-1.83,5-1.55,2.29-1.61,2.74-2.48,3.92.4,5.35.37,2.38-.32,2.48-1.61-2.46-7.29,2.82-8.55,7.61-2,9.24-4.23,4.13-5.42,4.54-6.49.64-5.51,1.49-8.37.57-6.22,1.22-8.32.09-.6,1.23-2.87,3.9-6.46,5.57-9.15,1.08-6.93,1.27-9.63.37-3.19-.19-4.8-2.9-2.64-1.63-4.14,3.78-1.85,3.54-3.26-4.47-4.29-5-5-.19-2.59-2-2.35-4.91,2.09-5.86,1.24-2.41-9.09-2.12-11.34,1-4.63,2-5.07,2.87-.4,5.19-2.32,3.8-2.46,5.47-2.15,4,1.78,5.43.37,3.05-4,5.06-4.43,2.25.81,3.07-.43.15-4,1.41-5.79-.28-5.53-.94-6.5S205.1,87.19,203,86a41.14,41.14,0,0,0-6.69-3.31c-1.06-.22-1,1.27-2.89-1.17s-3.23-4.68-5.72-5.62-3.4-.9-4.87-1.47-3.65-1.4-4.31-2.59,2.7-3.15,3.69-2.44,1.41,3.64,3.57,4A4.89,4.89,0,0,0,190,72.29c1-.64.21-.21,2.12,1.43s5.09,3.15,8,4.56,3.65,3.14,4.77,4.43,0,1.71,1.33,1.32,3.28-3,5.74-2,1.81,2.07,4.22,2.78a11.94,11.94,0,0,1,5.76,3.1,22.32,22.32,0,0,0,2.05,2,1.94,1.94,0,0,1,1.49,1.43,2.12,2.12,0,0,0,2.06,1.84c1.14.13,2.27-.09,2,1s-1.15,3.33-2.6,3.29-2.94.4-2.42.94,6.78,3.92,8.54,4.08,6.79-4.77,7.63-4a14,14,0,0,0,4.58,2.25c.63,0,3.37-2.66,4.58-3a5,5,0,0,0,2.58-3.25c.21-1.08.36-3.14.88-3.2a14.41,14.41,0,0,0,4.11-.61c1.05-.53,3-1.91,3.62-.82s1.35,3.6,2.74,3.13,5.27-3.32,8.44-1.46a20.47,20.47,0,0,1,5.63,4.35,3.24,3.24,0,0,0,3.08,1.54,5.46,5.46,0,0,1,4.24,1.31c1,1,2.29,4.11,4.3,4.17s2.86-.61,5.41-.89a35.84,35.84,0,0,1,7.9.09c1.3.28,1.37.54,1.37.54s-.09-3.9-2.43-4.82-4.61-1-6.5-1.61-5.78-1.49-5.94-2.81.7-1.81-1.2-2.37-6.36-1.43-8.88-2.87-4-2.32-5.44-2.55-2.61-.06-3.86-1.35-2.83-2.39-3.93-1.9a2,2,0,0,0-1.13,2.59c.37,1,1.74,3.15.5,3s-2.45-1.79-3.5-2.15a7,7,0,0,0-4.45-.25,19.41,19.41,0,0,0-2.84,1.77,7.73,7.73,0,0,1-3-.43c-.55-.21-13-10.94-16.8-13S222,68.18,220,66.94s-5-2.48-6.91-4.17a17.76,17.76,0,0,0-5-3.19c-.63-.12.05,1.21-.32,3.26s-3.58,3-2.62,4.17,4.67.82,4.93,1.73-.17,3.55-2,3.58-2.7.22-2.83-1.36a3.76,3.76,0,0,0-2.48-3c-1.14-.5-7.16-4.58-8.68-5.19s-4.82-1.15-6-2.55-2.55-2.47-1.86-4.05,2.21-2.75,3-4,.43-3.17,2.09-2.21,3.21,1,2.41,2.87-1.39,3.62-.32,3.24,4.11-2.27,4.12-3.1-.73-1.58-.28-2.79,4.06-3,5-3.33a19.1,19.1,0,0,1,5.34-.79c1.77.11,3.48-.21,2.59-1.47s-1.77-3.94-3.11-3.11-3.2,1.93-3.82,1.74a2.31,2.31,0,0,0-2.37.51c-1,.79-1.45,2.36-2.95,3.48s-.35,2.68-2.21,2.78-3.13-.78-4.31-1.17a5.18,5.18,0,0,0-3.44-.16c-1.74.35-5.63,3.58-4.91,6.91s1.41,5.57,4.54,6.84a28.24,28.24,0,0,1,7.51,4.8c.8.88,1.22,2.59.57,3.3s-5.35-1.39-8.52-3.52-4.68-3.75-6.57-4.14-2.69-.65-4.13-.37-1.78.53-2.57,0a37.76,37.76,0,0,1-5-5.23c-.84-1.3-1.9-2.39-2.39-3.3s-1.77-1-2.41-1.59-1.68-2.23-2.32-1.94a34.9,34.9,0,0,1-3.13,1.82c-1.27.53-4.17.86-4.54-1.77s0-4-.43-4.76-2-3.31-2.8-4.56-3-4.92-3-4.92l-1.81.47s-.54,2.26-.88,4,.55,4.4-.31,5.56S142,48,142.24,48.82s2.35,1.49,2.83,2.94,2.16,5.66,2.16,6,0-2.28.51-2.62,4.12-1.61,6.35,0,2.62,2.67,2.34,4-.85,3.57,1.89,3.74,4.25-.33,4.89,1-.68,1.36.65,1.69,4.48-1.52,5.16-.75a4.58,4.58,0,0,1,.84,3.65c-.22,1.56-.31,3.13-1.32,3.49s-1.24,1.16-3.51.63-3.88,0-3.52-1.1a19.5,19.5,0,0,1,.88-2.15,14.21,14.21,0,0,1-3.77-1.24c-1.69-.89-5.36-2.68-5.91-2.9s-2.75-.79-3.13.06-1.36,4.09-2.45,3.8a7.59,7.59,0,0,1-3.72-2.53,29.31,29.31,0,0,0-2.5-3.85c-.6-.58-1.25-1-1.21-1.92a23.28,23.28,0,0,1,.68-3.33s-1.17-1.17-1.47-1.17-1.9,1.11-2.74,1-1.33-1.33-.47-2.87-.7-4.19-1.78-4.28-1.87-1.7-.88-1.66,2.74-.88,3.33-.88a10.21,10.21,0,0,1,2,.45s-2.87-2.89-1.11-5.24,0-4.11-.39-5.09.36-1.52,3.41-1.2,10.21-1.81,12.32-3,5.52-4.65,10.32-5.7,7.71-2.34,10.1-2.9,10.42,1.47,12.19,1.95,2.72.31,5.79.29,5.17-.71,5.3.21a41.88,41.88,0,0,0,.88,4.89c.3.82-.15,2.37,1,3.67s1,1.86,2,2.29.89-.15,2.37-1.32,2.1-1.16,3.58-.12,2,2.83,2.31,3a7.29,7.29,0,0,0,3.6-.83l2.24-1.3.89-.52a35.86,35.86,0,0,1,6.55,6.27c2.85,3.62,14.74,16.53,19,19.48s13.58,9.3,13.91,9.51,6.83,3.49,7.57,3.8,3.83,2.49,4.27,1.32-9.77-8.61-11.7-9.93-4.29-2.27-6-3.3-2.32-1.86-4.85-4.6a133.86,133.86,0,0,0-10.1-8.94c-1.07-.88-7.79-6.77-9-7.74s-2-2.66-3.29-5.4a17.35,17.35,0,0,0-2.54-4.09,8.46,8.46,0,0,0-2.09,1.76c-.35.66-3.94.24-4.9-.53s-1.79-1.4-2.38-1.23-3.38,1.35-3.38,1.35a2.49,2.49,0,0,1-1.31-1.17,3.74,3.74,0,0,0-2-1.89c-.75-.19-2.44.3-3.4-.93s-1.87-5-.54-6,4.37-2,6.2-1.23,14.21,1.41,15.65,1.48a7.94,7.94,0,0,1,4.81,2.68c1.08,1.36,12.32,21.06,18.93,26.77S270,73.93,277.45,78.79s20.47,15.43,21.38,15.86,6.9,3.34,9.26,5.92,4.89,3.39,5.54,5.57,1.17,3.16-.46,2.38-4.82-3.39-5-2.22.16,3.77,3.44,4.79,1.59,0,3.84,2.39,2.26,3.88,3.84,5,3,2.81,2.77.82a10.72,10.72,0,0,0-2.08-5.84c-1.57-2.21-3.08-3.39-2.44-3.71s9,7.69,10.16,9.35,5,5.15,3.63,5.3-3.89-3.72-5-2.72,1.67,4.29,2.09,4.57,6.66.1,6.42,2-2.13,1.62-3.13,1.65-2.53,2-3.1,4.33-1.67,3.48-.62,4.35,3.34,1.35,4.49,1.77a16.71,16.71,0,0,1,4.84,2.6c1.28,1.19,2.93,3.6,4.32,4s2.23-.71,1.86-2.15-1.33-6.74-2.14-7.5-3.23-2.64-3.68-3.68,1.09-2.48,3.09-.92.23.52,2.09,3.33,8.63,11,9.95,12.53,2.76,2.61,2.72,3.89-1,5.56-.21,7.55,2.7,4.1,2.7,5.75.66,2.63-.26,2.37-5.66-5.12-6.9-4.27-1.62,1-1.83,2.74-.66,4.46-.66,5.11,2.27-1.44,4-2,1.6-1.85,2.13-.5-.09,3,.17,4,1.16,2.61,2,2.75,2.16-.08,2.16-1.32-1.27-3.47.2-3.52,2.87,3.58,2.9,4.4.53,3.61,1.16,4,2.68,1.85,3.24,3.13a10.2,10.2,0,0,1,.58,3.16c.2,1.15,6.31,5.71,6.32,6.12s-5.73-3.13-7.32-3.83-4.64.21-6.19,1.94-.1,4.13,1.17,5.21a5.17,5.17,0,0,0,2.64,1.37c.25,0,1.6-2.17,3.11-1.61s2.86,3.62,2.74,4.73a10.64,10.64,0,0,1-2.26,4c-.37.25,0,5.59.78,7s2,2.51,2.89,1.9,1.13-2.53,2.44-2.68,3.72-.55,4.21-2-1-4.14-1-5.09,2-1.33,3.53-.8,2.88,1,3.18,2.89.39,4,1.71,4.3a4.37,4.37,0,0,1,2.79,2.37c.47,1,1.57,1.94,0,1.89s-5.16-.87-5.14-.54,5.61.66,6.85,2.26,4.05,5.75,5.33,6.91a31.59,31.59,0,0,1,3.91,3.9c.37.72,2,4.42,2.33,4.51s-.63-3.8.34-4.2,5.6,2.27,6.88,5.47,2.13,7.55,2.91,8.59a21.64,21.64,0,0,0,2.46,2.61c.25.19,1.19.76.34,1.11s-2.16-.8-2.74.25-1.32,1.81-.52,2.73,2.33,1.86,2.84,1.6a7.07,7.07,0,0,0,2.3-2.15c.42-.82,2.45-.28,4.36,2.21s4,4.26,2.3,4.1-4.26-1.58-5.14-1.58-2.28,0-1.7,1.39,3.41,2.67,4.5,3.12,2,1.31,2,4.31-.13,6.06.65,7.63,2.78,3.81,3.59,3,2.48-1,1.5-3.28-3.26-8.61-2.67-9.13,2.19,1.54,4.29,4.62,2.5,3.84,3.57,4.47,1.8.34,2.19,2.47-1.07,7.18-.51,9.73a24.38,24.38,0,0,0,3.44,8.31c1.66,2.35,1.64,3.92.33,4.56s-2.21-.17-3.66-2.07-3.35-4.68-4.49-3.49-1.41,2.12-1.19,3a39.6,39.6,0,0,0,1.34,5.8c.8,2.15,1.79,3.35,1,4.13s-4.56,1.68-4.82,1.34,0-3.09-2.2-4.61-3.05-2.25-3.05-2.25-1.89-.74-2.5-.32A56.35,56.35,0,0,0,413,298.6c-1,1.14-2.27,3.13-1,4.36s3,1.78,3.45.91a27.32,27.32,0,0,1,4.85-5.21c1-.53,2.1-.59,3.64,1.19s2.15,2.28,2.93,4.6,3,2.18,4.71,3.81,1.84,3.38,3.91,3.28,6.11-1.14,7.6-1,1.74-.84,3.29,1.32,3.6,5.74,4.37,5,5.9-8,3.7-7.65-4.73,4-5.65,1.67-2-5.4-1.65-7.37,3.45-5.64,4.73-6.44,2.08-1.19,3.12.23,2.31,4.87,2.8,4.88,2.2-1.74,2.8-1.4,2.44.89,2.26,2.25-1.65.51-1.51,2.59,3,6.59,4.14,9.05,1.16,7.18,1.76,10,4.8,8.49,3.43,8.19-3.14-3.51-4.6-5.47-2.4-4.19-3.59-4.34-3.06-.08-2.81,1.3,2.47,2.56,2.78,4-1.2,2.45-.49,3.94,1.73,1.92,2.81,3.36,1,2.51,2.68,2.68,3.43-1.7,3.93.36,4.39,22.39,6.54,28.22,4.81,13.27,4.89,15-1.48,4.22-2.36,3-3.6-9.66-4.69-11.77-1.49-5.1-3-5.56-3.91-1.51-4.09-.65.88,3.11,1.91,4.89.39,3.31-1.62,3.4-3.78-.31-4.28.07-2.15,2.64,2.83,3.56,7.16-1.31,8.11,1,.29,5,1.23,6,.82.1,2.39.93.59,6.09,2,6.5,1.47-4.89,1.73-6.55-.74-13.11.37-11.45,4.44,9.37,4.87,14.57,0,8.74,1.86,10.89,4.4,3,5.55,4.68.9,2,2.54,2.63a4.92,4.92,0,0,0,4-.3c.68-.44,3.13-.92,3.73,0s-2.43,3.4-2.83,4.64.84,4-.68,5.34-4.14,2.79-6,4.62-2.71,4.3-.89,5.76,3.37,1.17,3.16,3.33,1.8,2.1,2.6,4.18,1.39,4.53.21,4.77-3.9-1.58-4,.25,3.5,3.14,5,2.87,5.55-1,3.89-3.77-6.35-6.8-6.65-8.44-2.22-4.24-1.74-6.61-1.35-3.14,2-4,5.14-1.47,5.92-2.44,1.1-1.93,2.72.71,4.26,2,2.76,3.69-3.28,4.72-2.71,7.93a12.78,12.78,0,0,0,4.49,8c2.32,1.74,3.69,2.3,5,1.71s2.44-1.07,2.64.44,1.64,9.08,5.91,10.77,6.48,1.19,7.58,2.13a3,3,0,0,1,1.37,2.44c.26,1.37-.16,3,.93,3.64a3.36,3.36,0,0,1,1.75,3.59c-.37,1.65-1,4.46-2.17,2.62s-.63-4.13-1.73-4-2.14,2.42-3.14,2.54-1.89.24-1.71-1.59.4-3.27-.58-4-2.3-2.58-4.77-3.64-5.24-2.72-6.91-2.53-5,.44-5.54,1.81-1.54,4.8-2.4,5.91-1.53,1.9-1.46,2.45,2.61-1.37,4.57-1.31,2.94,2.17,4.66,2.62,2.49-.92,2.34-2.16a12.64,12.64,0,0,1-.13-3.46c.19-.26,2.66,2.86,4.76,2.9s3.55-1.46,3.19.16-3,4.37-2,5,2.73-2,3.84-1,1.42,4.83,3.69,6.3,4.72,2.63,4.62,4-2,2.23-1.54,3.84,1.73,2.26,2.52,3,.25,2.37.93,1.9,0-5.46,2.49-5.76,3.18,2,4.31,3.28a27.79,27.79,0,0,0,3.68,3c.66.54,1.14,1.14.53,1.77s-2.62-.19-2,1.08,3,2.23,4.25,3.54,1.58,2,.69,2.44-3.24-.51-2.65,1,3,3.09,1.36,3.66-3-.55-3.74-.31-1.2.17-1.1,1-.52,3.84,1.9,3.52,3.46-2.23,5-1.05a2.15,2.15,0,0,1-.61,3.89c-1.85.49-4.8-.14-5.19.53s3.2.73,4.11,3.67.18,5,.12,6.46.84.77,1.45,0,1.73-2.65,2.41-.46.26,4.61,1.17,6.45a23,23,0,0,1,1.57,4.28c.31,1.09,1.79-.08,2.69-1.38s1.35-4.6,3-4.65,3,1.17,3.23,4.8a16.09,16.09,0,0,0,3.4,9.59c2.45,3.34,2.64,3.6,3.21,6.16s2.11,4.34,1.59,5.78-2.51,1.41-1.87,2.91,1.34,1,1.89,2.86.41,8.66-.19,9.28-2,1.06-2.19,2,.48,6.3.09,8.16-.66,2.93-1.39,3.19-5.8,2.28-6.53,4.06.92,4.06,1.3,5.27-.11,3,1.47,2.06,4.58-9.88,4.95-9a76.73,76.73,0,0,1,1.58,10.89c0,2-.19,5.78-2.24,6.28s-1.71-1.27-3.5-.46-1.7,1.71-.92,3.52,1.28,1.1,1.58,3.08-.21,3.4.73,3.81,5.78-1.06,6.82,1.19,1,5.7-.17,6.33-3.52-.8-3.79.16,1.25,3.63.14,3.8-2.78-2.73-3.4-1.18-.84,4.27-.54,4.48,6.78-3,6.27-1.07-3.36,6.28-3.46,6.95-.57,6.8-1.14,7.66-1.4-.06-2.15,2.11.68,5.4.38,7-.73,3.47-1.56,2.84-4-2.48-3.36-1.24,4.24,2.8,4.83,4.07-5.54,3.73-5,7.34.87,5.31.83,5.68-1.71-.19-1.29.61,1.44,1.83,1.05,2.46-3.55,3.79-3.88,4.77.08,2.58-.33,3.7-.59,1.29-1.17,1.4-1-.51-1.51,1.4-.82,3-1.91,3.09-2.33-.76-2.93.1.24,3.15,1.22,4.5,1.94.76,1.82,3.89-2.81,4.48-3.25,5.72.9,4.74-1.41,5.18a5.77,5.77,0,0,1-4-.61,4.59,4.59,0,0,1,1,3.76c-.54,2-.47,3.07-1.92,3.46s-3.05,1.46-3.05,2,1.12,3,.36,5-3.38,7.17-4.29,8.12a6.92,6.92,0,0,1-4.63,2c-1.72-.08-3.15.53-3.56,3.15s-.67,3.2-2.82,4-4.24.85-6,3.83a20,20,0,0,1-4.54,5.19c-1.39,1.32-4.36,1.29-5.57,3.11s-1.93,4.27-3.67,4.76-4.14.18-7.1.31-4.22.36-4.51,1.85-1.86,6-4.6,7.93-3.92,3.8-5.29,3.9-2-1.17-2.54,0a13.88,13.88,0,0,1-2.84,3.82,8.46,8.46,0,0,1-2.44.87s-1.64-1-2.42-.46-1.19,3.75-4.85,5.42-8.16,2.78-10.06,5-5,6.91-7.88,8.4-7.81.51-12.07,2.07S432.12,788.8,431.4,789s-2.28,1.3-2.19,0,1.82-2.08,1.23-3.12-.93-2.92-1.62-3-2.5,2-3.08,3.14-.54,3.43-1.65,4.16a32,32,0,0,1-7.12,2.26,10.58,10.58,0,0,0-3.07.88c-.19.18-.43,3.94-2.25,4.48a95.72,95.72,0,0,1-13.11,1.39,39.15,39.15,0,0,0-9.55,1.08,41.18,41.18,0,0,0-8.68,4.13,12.33,12.33,0,0,1-4.56,1.44c-1.51.27-4.38,1.11-3.82,0s2.29-3.57,2.29-3.57-2-2.08-3.56-1.84a4,4,0,0,0-2.05.72s1.06,3.48.74,4.31-4.19,1.76-6.84,2.53-4.17,1.67-4.69,2.46-2,2.74-2.79,2.78a13.55,13.55,0,0,1-4.53-.5,14.16,14.16,0,0,0-4.22-1.09c-1,0-2.81,4.1-4.08,5.52s-1.09,2.72-3.38,2.75-4.38,0-5.07,0-.8,4.41-2.22,5.79-2.67,2.12-3.51,1.73-1.79-1.67-2.28-1.21-1.88,3.8-5,4.78-7.55.26-10.3,1.05-7.58,1.88-9.73,3-3.55,2.75-5.91,2-7.36-3.54-13.56-3-9.16,1.78-11.85.94a13.08,13.08,0,0,1-5.46-3.72c-1.37-1.29-1.05-4.58-3.63-4.21s-9.49,2.26-13.4,1a49.08,49.08,0,0,1-8.83-3.75c-2.1-1.18-2.11-2.3-4.66-2.22a43.58,43.58,0,0,1-9.26-.9c-2.79-.6-5.8-.86-6.44-1.94s.55-4-.06-5.13-1.56-1.44-1.86-1.24-.62,1.67-2.54,1.57-7.33-4.5-11.69-7.57-4.77-5.63-8.47-8.67-5-4.27-6.16-6.41-4.71-9.42-6.75-12.19-5.69-7.64-6.65-11.33-3.11-18.7-4.39-22.49-4.22-8.42-5-11.53S160.44,722.93,160.44,722.93Z"/></g><g id="Uva"><path class="cls-1" d="M521.41,701s-1.76-25-1.17-27.78S522.39,657,523,651.91s2.15-28.56,1.56-31.11-3.52-5.67-3.52-6.45,2.35-1.86.59-5.09-2.3-2-1.49-4.5,2.33-5,0-7.24-18.47-2.74-19.84-7.24-.78-5.67-2.54-8.41-2.74-2.15-1.76-5.48,6.85-5.87,7.63-11.54a16.59,16.59,0,0,0-3.72-12.72c-2.15-2.74-3.91-4.3-5.09-5.87s-2.93-1.86-3.52-5.38-.1-4.3-.88-7.83-1.17-3.62-2.54-6.65-1.08-2.44,0-4.11,1.76-7.24-2.74-4.5-7.92,7-11.74,8.42-6,2.74-6.16,5.18-.2,4.5-2,5.09-2.15,1.07-3.42,3.13-1.67,1.37-3.92,2.25-3.13-1.66-3.13,2,1.57,13.41-.09,14.09-3.13-2.25-4.6-.68.58,5.47-2.45,3.52-3.81-4.5-5.18-6.07-2.25-1.37-2-4.89.1-7.92-3.62-8.41-4.69,2.35-6.36.29-7.14-13.4-6.85-18.59,2.94-5.08,3-9.29-1-2.54-.49-6.55.39-5-.78-7.93-2.65-6.55-6.95-4.69-9.1,8.61-13,10.86-7,4.2-11-.49-5.87-4.31-6.36-8,.49-4.79-.68-7a9.47,9.47,0,0,0-5-4.21,12.06,12.06,0,0,0-2.74,0s-.19,7.34-1.66,10-1.37,7.63,0,12.43,1.66,20.54.19,24.36-.29,13.4,2.94,18.68,6.16,7.14,3.32,11.74-5.47,6.16-9.58,6.65-8.22,1.37-5.77,5.09,5.38,1.76,3,6.16-3.07,4.31-.61,6,.9.68.8,3.23,2.65,5.57-3.13,13.89-6.06,10.95-11.54,13.2-9,1.57-11.25,5-2.05,5.38-4.3,6.26-6.66.79-7.83,1.28-.78,3.81,2.05,3.81,5.58-1.37,5.58,1.76-1.37,4.4,1.57,7.44,4.4,3.81,3.52,4.89-3.43,1.47-4.21,2-1.48,6.07-1.37,7,2.06,0,.88,3.13-1.2,4,.67,3.39,2.17.91,2.46,2.48,2.64,1,4.31,2.35,1.85,4.4.68,5.28-7-.34-8.16,1.4.64,1.17,1.7,2.81,1.95,4.83,5.55,5.9,4,1.21,7.26-.35,7.23-3.1,6.27-1.27-4.93,7.91-5.54,13.6-4.28,11.29-4.95,12.53-5.07,7.83-5,9.4.92,16.35,2.77,21.54,3,7.22,6.38,8.63,6.15,2.69,7.2,5.29,2,5.59,2,5.59,18.32-7.17,19.61-7.73,4.6-1.05,3.6-3.88-4.59-5.61-1.76-6.73,6.48-2.69,7.23-5.59.6-3,4.12-3.21a53.28,53.28,0,0,1,14,1c4.5,1.08,5.6,1.61,5.74,3.39s.25,4.83,2.07,3.47,5.64-5.49,7.45-3.08,9.68,14.92,12.52,14.57,1.71-.76,2.66-3.54,3.6-3.66,7.12-3.27,12.74-4.6,15.16-5.18,3-.71,4.31-3,2.84-2.6,3.94-1.94,2.81,1.81,3.79,1.54,5.49-2.08,8.32-1.32,4.75-.91,6-5.66,1.81-4.57,1.07-6.51-1.81-2.84-1.53-3.58,9.92-9.22,9.92-9.22,4.61-2.83,7.28-2.74,6.43-1.72,7.72-2.64A38.78,38.78,0,0,1,521.41,701Z"/><path class="cls-2" d="M521.35,701.08s-1.76-25-1.17-27.78,2.15-16.24,2.74-21.33,2.15-28.56,1.56-31.11-3.52-5.67-3.52-6.45,2.35-1.86.59-5.09-2.29-2-1.49-4.5,2.33-5,0-7.24-18.47-2.74-19.84-7.24-.78-5.67-2.54-8.41-2.74-2.15-1.76-5.48,6.85-5.87,7.63-11.54a16.59,16.59,0,0,0-3.72-12.72c-2.15-2.74-3.91-4.3-5.08-5.87s-2.94-1.86-3.53-5.38-.09-4.3-.88-7.83-1.17-3.61-2.54-6.65-1.08-2.44,0-4.11,1.76-7.24-2.74-4.5-7.92,6.95-11.74,8.42-6,2.74-6.16,5.18-.2,4.5-2,5.09-2.15,1.07-3.42,3.13-1.67,1.37-3.92,2.25-3.13-1.66-3.13,2.05,1.57,13.41-.09,14.09-3.13-2.25-4.6-.68.59,5.47-2.45,3.52-3.81-4.5-5.18-6.07-2.25-1.37-2-4.89.1-7.92-3.62-8.41-4.69,2.35-6.36.29-7.14-13.4-6.84-18.59,2.93-5.08,3-9.29-1-2.54-.49-6.55.39-5-.78-7.93-2.64-6.55-6.95-4.69-9.1,8.61-13,10.86-7,4.2-11-.49-5.87-4.31-6.36-8,.49-4.79-.68-7a9.47,9.47,0,0,0-5-4.21,12.06,12.06,0,0,0-2.74,0s-.19,7.34-1.66,10-1.37,7.63,0,12.43,1.66,20.54.19,24.36-.29,13.4,2.94,18.68,6.16,7.14,3.33,11.74-5.48,6.16-9.59,6.65-8.22,1.37-5.77,5.09,5.38,1.76,3,6.16-3.07,4.31-.61,6,.9.68.8,3.23,2.65,5.57-3.13,13.89-6.06,11-11.54,13.21-9,1.56-11.25,5-2.05,5.38-4.3,6.27-6.66.78-7.83,1.27-.78,3.81,2.05,3.81,5.58-1.37,5.58,1.76-1.37,4.41,1.57,7.44,4.4,3.81,3.52,4.89-3.43,1.47-4.21,2.05-1.48,6.07-1.37,6.95,2.06,0,.88,3.13-1.2,4,.67,3.39,2.17.91,2.46,2.48,2.64,1,4.31,2.35,1.86,4.4.68,5.28-7-.34-8.16,1.4.64,1.17,1.7,2.81,1.95,4.83,5.55,5.9,4,1.21,7.26-.35,7.23-3.1,6.27-1.27-4.93,7.91-5.54,13.6-4.28,11.29-4.95,12.53-5.07,7.84-5,9.4.92,16.36,2.77,21.54,3,7.22,6.38,8.63,6.15,2.69,7.2,5.29,2,5.59,2,5.59,18.32-7.17,19.61-7.73,4.6-1,3.6-3.88-4.59-5.61-1.76-6.73,6.48-2.69,7.23-5.59.6-3,4.12-3.21a53.28,53.28,0,0,1,14,1c4.5,1.08,5.6,1.61,5.74,3.39s.25,4.83,2.07,3.47,5.64-5.49,7.45-3.08,9.68,14.92,12.52,14.57,1.71-.76,2.67-3.54,3.59-3.66,7.11-3.27,12.74-4.6,15.17-5.18,3-.71,4.3-2.95,2.84-2.59,3.95-1.94,2.8,1.81,3.78,1.54,5.49-2.08,8.32-1.32,4.75-.91,6-5.66,1.81-4.57,1.07-6.51-1.81-2.84-1.53-3.58,9.92-9.22,9.92-9.22,4.61-2.83,7.28-2.74,6.43-1.72,7.73-2.64A38.2,38.2,0,0,1,521.35,701.08Z"/></g></g></svg>